<svg width="500" height="500" viewBox="0 0 500 500" fill="none" xmlns="http://www.w3.org/2000/svg">
<path d="M92.6373 317.145L77.8043 317.424L70.2893 317.536C67.7793 317.583 65.2573 317.574 62.7403 317.591L62.2963 317.594L62.2943 317.145L62.2403 304.512L62.2383 304.01L62.7403 304.012L77.6883 304.075C82.6713 304.08 87.6533 304.187 92.6363 304.239L92.9113 304.242L92.9093 304.512C92.8903 306.651 92.8233 308.78 92.7783 310.887L92.6373 317.145ZM92.6373 317.145L92.4953 310.77C92.4503 308.667 92.3833 306.584 92.3643 304.512L92.6373 304.785C87.6543 304.836 82.6723 304.944 77.6893 304.949L62.7413 305.012L63.2403 304.513L63.1863 317.146L62.7403 316.7C65.2063 316.718 67.6673 316.708 70.1403 316.755L77.5733 316.867L92.6373 317.145Z" fill="#EBEBEB"/>
<path d="M75.9595 333.075L61.1265 333.354L53.6115 333.466C51.1015 333.513 48.5795 333.504 46.0625 333.521L45.6185 333.524L45.6165 333.075L45.5625 320.442L45.5605 319.94L46.0625 319.942L61.0105 320.005C65.9935 320.01 70.9755 320.117 75.9585 320.169L76.2335 320.172L76.2315 320.442C76.2125 322.581 76.1455 324.71 76.1005 326.817L75.9595 333.075ZM75.9595 333.075L75.8175 326.7C75.7725 324.596 75.7055 322.514 75.6865 320.442L75.9595 320.715C70.9765 320.766 65.9945 320.874 61.0115 320.879L46.0635 320.942L46.5625 320.443L46.5085 333.076L46.0625 332.63C48.5285 332.648 50.9895 332.638 53.4625 332.685L60.8955 332.797L75.9595 333.075Z" fill="#EBEBEB"/>
<path d="M75.9595 59.714L61.1265 59.993L53.6115 60.105C51.1015 60.152 48.5795 60.142 46.0625 60.16L45.6185 60.163L45.6165 59.714L45.5625 47.081L45.5605 46.579L46.0625 46.581L61.0105 46.644C65.9935 46.649 70.9755 46.756 75.9585 46.808L76.2335 46.811L76.2315 47.081C76.2125 49.22 76.1455 51.349 76.1005 53.456L75.9595 59.714ZM75.9595 59.714L75.8175 53.339C75.7725 51.236 75.7055 49.153 75.6865 47.081L75.9595 47.354C70.9765 47.405 65.9945 47.513 61.0115 47.518L46.0635 47.58L46.5625 47.081L46.5085 59.714L46.0625 59.268C48.5285 59.286 50.9895 59.276 53.4625 59.323L60.8955 59.435L75.9595 59.714Z" fill="#EBEBEB"/>
<path d="M453.938 59.714L439.105 59.993L431.59 60.105C429.08 60.152 426.558 60.142 424.041 60.16L423.597 60.163L423.595 59.714L423.541 47.081L423.539 46.579L424.041 46.581L438.989 46.644C443.972 46.649 448.954 46.756 453.937 46.808L454.212 46.811L454.21 47.081C454.191 49.22 454.124 51.349 454.079 53.456L453.938 59.714ZM453.938 59.714L453.796 53.339C453.751 51.236 453.684 49.153 453.665 47.081L453.938 47.354C448.955 47.405 443.972 47.513 438.99 47.518L424.042 47.581L424.541 47.082L424.487 59.715L424.041 59.269C426.507 59.287 428.968 59.277 431.441 59.324L438.874 59.436L453.938 59.714Z" fill="#EBEBEB"/>
<path d="M437.26 75.644L422.427 75.923L414.912 76.035C412.402 76.082 409.88 76.072 407.363 76.09L406.919 76.093L406.917 75.644L406.863 63.011L406.861 62.509L407.363 62.511L422.311 62.574C427.294 62.579 432.276 62.686 437.259 62.738L437.534 62.741L437.532 63.011C437.513 65.15 437.446 67.279 437.401 69.386L437.26 75.644ZM437.26 75.644L437.118 69.269C437.073 67.166 437.006 65.083 436.987 63.011L437.26 63.284C432.277 63.335 427.295 63.443 422.312 63.448L407.364 63.511L407.863 63.012L407.809 75.645L407.363 75.199C409.829 75.217 412.29 75.207 414.763 75.254L422.196 75.366L437.26 75.644Z" fill="#EBEBEB"/>
<path d="M360.692 223.437L345.859 223.716L338.344 223.828C335.834 223.875 333.312 223.866 330.795 223.883L330.351 223.886L330.349 223.437L330.295 210.804L330.293 210.302L330.795 210.304L345.743 210.367C350.726 210.372 355.708 210.48 360.691 210.531L360.966 210.534L360.964 210.804C360.945 212.943 360.878 215.072 360.833 217.179L360.692 223.437ZM360.692 223.437L360.55 217.062C360.505 214.958 360.438 212.876 360.419 210.804L360.692 211.077C355.709 211.128 350.726 211.236 345.744 211.241L330.796 211.304L331.295 210.805L331.241 223.438L330.795 222.993C333.261 223.01 335.722 223.001 338.195 223.048L345.628 223.16L360.692 223.437Z" fill="#EBEBEB"/>
<path d="M344.014 239.367L329.181 239.646L321.666 239.758C319.156 239.805 316.634 239.795 314.117 239.813L313.673 239.816L313.671 239.367L313.617 226.734L313.615 226.232L314.117 226.234L329.065 226.297C334.048 226.302 339.03 226.41 344.013 226.461L344.288 226.464L344.286 226.734C344.267 228.873 344.2 231.002 344.155 233.109L344.014 239.367ZM344.014 239.367L343.872 232.992C343.827 230.889 343.76 228.806 343.741 226.734L344.014 227.007C339.031 227.058 334.049 227.166 329.066 227.171L314.118 227.234L314.617 226.735L314.563 239.368L314.117 238.922C316.583 238.94 319.044 238.93 321.517 238.977L328.95 239.089L344.014 239.367Z" fill="#EBEBEB"/>
<path d="M327.403 223.437L312.57 223.716L305.055 223.828C302.545 223.875 300.023 223.866 297.506 223.883L297.062 223.886L297.06 223.437L297.006 210.804L297.004 210.302L297.506 210.304L312.454 210.367C317.437 210.372 322.419 210.48 327.402 210.531L327.677 210.534L327.675 210.804C327.656 212.943 327.589 215.072 327.544 217.179L327.403 223.437ZM327.403 223.437L327.261 217.062C327.216 214.958 327.149 212.876 327.13 210.804L327.403 211.077C322.42 211.128 317.437 211.236 312.455 211.241L297.507 211.304L298.006 210.805L297.952 223.438L297.506 222.993C299.972 223.01 302.433 223.001 304.906 223.048L312.339 223.16L327.403 223.437Z" fill="#EBEBEB"/>
<path d="M453.938 333.075L439.105 333.354L431.59 333.466C429.08 333.513 426.558 333.504 424.041 333.521L423.597 333.524L423.595 333.075L423.541 320.442L423.539 319.94L424.041 319.942L438.989 320.005C443.972 320.01 448.955 320.117 453.937 320.169L454.212 320.172L454.21 320.442C454.191 322.581 454.124 324.71 454.079 326.817L453.938 333.075ZM453.938 333.075L453.796 326.7C453.751 324.596 453.684 322.514 453.665 320.442L453.938 320.715C448.955 320.766 443.973 320.874 438.99 320.879L424.042 320.942L424.541 320.443L424.487 333.076L424.041 332.63C426.507 332.648 428.968 332.638 431.441 332.685L438.874 332.797L453.938 333.075Z" fill="#EBEBEB"/>
<path d="M199.926 97.281L185.093 97.56L177.578 97.672C175.068 97.719 172.546 97.709 170.029 97.727L169.585 97.73L169.583 97.281L169.529 84.648L169.527 84.146L170.029 84.148L184.977 84.211C189.96 84.216 194.942 84.323 199.925 84.375L200.2 84.378L200.198 84.648C200.179 86.787 200.112 88.916 200.067 91.023L199.926 97.281ZM199.926 97.281L199.784 90.906C199.739 88.803 199.672 86.72 199.653 84.648L199.926 84.921C194.943 84.972 189.961 85.08 184.978 85.085L170.03 85.148L170.529 84.649L170.475 97.282L170.029 96.836C172.495 96.854 174.956 96.844 177.429 96.891L184.862 97.003L199.926 97.281Z" fill="#EBEBEB"/>
<path d="M423.226 180.971L429.113 171.48L426.206 169.68C425.351 169.15 424.888 168.184 424.974 167.182C425.021 166.628 425.039 166.071 425.027 165.512C425.005 164.509 425.529 163.576 426.413 163.102L429.426 161.486L424.146 151.641L421.134 153.257C420.25 153.731 419.183 153.651 418.36 153.078C417.901 152.759 417.427 152.465 416.94 152.198C416.058 151.715 415.509 150.794 415.541 149.79L415.649 146.372L404.486 146.025L404.383 149.455C404.353 150.461 403.736 151.336 402.826 151.766C402.579 151.883 402.334 152.006 402.092 152.136C401.849 152.266 401.611 152.402 401.378 152.543C400.521 153.061 399.456 153.091 398.605 152.564L395.677 150.75L389.79 160.241L392.702 162.048C393.556 162.579 394.019 163.546 393.932 164.548C393.884 165.099 393.866 165.655 393.877 166.211C393.898 167.212 393.374 168.145 392.491 168.618L389.477 170.234L394.757 180.079L397.771 178.463C398.654 177.989 399.72 178.069 400.543 178.64C401 178.957 401.473 179.249 401.959 179.514C402.842 179.996 403.392 180.917 403.361 181.922L403.256 185.348L414.419 185.695L414.526 182.268C414.557 181.266 415.172 180.394 416.078 179.965C416.326 179.848 416.573 179.723 416.818 179.592C417.06 179.462 417.299 179.326 417.533 179.185C418.395 178.665 419.464 178.635 420.32 179.166L423.226 180.971ZM413.775 173.923C409.323 176.311 403.783 174.638 401.395 170.186C399.007 165.734 400.675 160.186 405.128 157.798C409.58 155.41 415.132 157.086 417.52 161.538C419.907 165.991 418.227 171.536 413.775 173.923Z" fill="#EBEBEB"/>
<path d="M101.53 288.51L107.417 279.019L104.51 277.218C103.655 276.688 103.192 275.722 103.278 274.72C103.326 274.166 103.343 273.609 103.331 273.05C103.309 272.047 103.833 271.114 104.717 270.64L107.73 269.024L102.45 259.179L99.4383 260.795C98.5543 261.269 97.4873 261.189 96.6643 260.616C96.2053 260.297 95.7313 260.003 95.2443 259.736C94.3623 259.253 93.8133 258.332 93.8453 257.328L93.9533 253.91L82.7903 253.563L82.6872 256.993C82.6572 257.999 82.0402 258.874 81.1302 259.304C80.8832 259.42 80.6383 259.544 80.3963 259.674C80.1533 259.804 79.9153 259.94 79.6823 260.081C78.8253 260.599 77.7602 260.629 76.9092 260.102L73.9813 258.288L68.0943 267.779L71.0062 269.586C71.8602 270.117 72.3233 271.084 72.2363 272.086C72.1883 272.638 72.1703 273.193 72.1813 273.749C72.2023 274.75 71.6782 275.683 70.7952 276.156L67.7812 277.772L73.0612 287.617L76.0752 286.001C76.9582 285.527 78.0243 285.607 78.8473 286.178C79.3043 286.495 79.7773 286.787 80.2633 287.052C81.1463 287.534 81.6963 288.455 81.6653 289.46L81.5602 292.886L92.7233 293.233L92.8303 289.806C92.8613 288.804 93.4763 287.932 94.3823 287.504C94.6303 287.387 94.8773 287.262 95.1223 287.131C95.3653 287.001 95.6032 286.865 95.8372 286.724C96.6992 286.204 97.7683 286.174 98.6243 286.705L101.53 288.51ZM92.0783 281.462C87.6263 283.85 82.0862 282.177 79.6982 277.725C77.3102 273.273 78.9783 267.725 83.4313 265.337C87.8833 262.949 93.4352 264.625 95.8232 269.077C98.2112 273.53 96.5303 279.074 92.0783 281.462Z" fill="#EBEBEB"/>
<path d="M215.868 106.738L211.958 99.961L209.884 101.159C209.274 101.512 208.524 101.478 207.934 101.093C207.608 100.88 207.27 100.685 206.921 100.507C206.295 100.189 205.892 99.556 205.892 98.854V96.46H198.066V98.855C198.066 99.557 197.663 100.19 197.037 100.508C196.688 100.685 196.35 100.881 196.024 101.094C195.434 101.478 194.684 101.513 194.074 101.16L192 99.962L188.09 106.739L190.173 107.938C190.784 108.29 191.12 108.96 191.084 109.664C191.074 109.855 191.069 110.047 191.069 110.24C191.069 110.433 191.074 110.625 191.084 110.816C191.12 111.517 190.786 112.184 190.179 112.535L188.09 113.742L192 120.519L194.08 119.32C194.69 118.968 195.441 119.003 196.031 119.388C196.356 119.6 196.692 119.795 197.04 119.972C197.665 120.291 198.067 120.923 198.067 121.625V124.021H205.893V121.625C205.893 120.923 206.295 120.291 206.92 119.972C207.267 119.795 207.604 119.6 207.928 119.388C208.518 119.003 209.269 118.968 209.879 119.32L211.959 120.519L215.869 113.742L213.789 112.542C213.18 112.191 212.846 111.523 212.881 110.821C212.891 110.629 212.895 110.436 212.895 110.241C212.895 110.048 212.89 109.856 212.881 109.665C212.845 108.961 213.181 108.29 213.792 107.938L215.868 106.738ZM208.388 110.24C208.388 113.779 205.521 116.646 201.982 116.646C198.443 116.646 195.57 113.779 195.57 110.24C195.57 106.701 198.443 103.828 201.982 103.828C205.521 103.828 208.388 106.701 208.388 110.24Z" fill="#EBEBEB"/>
<path d="M88.8355 303.84C75.7665 316.634 73.5735 336.427 76.3275 353.764C76.3985 354.157 77.0075 354.05 77.0075 353.681C77.0075 349.734 76.8885 345.823 76.9005 341.924C76.9715 341.745 77.0315 341.578 77.1035 341.399C80.5135 338.919 83.6495 336.117 85.5935 332.277C87.7755 327.985 88.6335 323.143 90.3035 318.66C90.4585 318.231 90.0005 318.357 89.7015 318.578C81.7525 324.44 79.2185 330.75 76.9375 339.181C77.0445 334.805 77.3785 330.429 78.3205 326.053C80.0375 318.052 83.4355 310.123 89.1835 304.185C89.3965 303.959 89.0625 303.613 88.8355 303.84Z" fill="#263238"/>
<path d="M91.2908 305.331C93.5388 305.407 94.9488 309 96.7008 310.049C97.6278 310.607 98.5308 310.573 99.1818 309.659C100.918 307.236 98.5358 304.246 96.2958 302.574C97.8978 303.233 99.2268 304.39 100.954 304.718C102 304.91 102.813 304.522 103.057 303.459C103.818 300.155 99.6738 298.685 96.8308 298.616C98.2088 297.658 102.16 295.053 100.061 293.772C97.9338 292.486 93.2979 296.211 91.7859 297.437C89.5639 299.24 86.9129 301.935 86.8129 304.755C86.6829 308.048 89.5608 306.022 91.2908 305.331Z" fill="#FDD714"/>
<path opacity="0.1" d="M91.2908 305.331C93.5388 305.407 94.9488 309 96.7008 310.049C97.6278 310.607 98.5308 310.573 99.1818 309.659C100.918 307.236 98.5358 304.246 96.2958 302.574C97.8978 303.233 99.2268 304.39 100.954 304.718C102 304.91 102.813 304.522 103.057 303.459C103.818 300.155 99.6738 298.685 96.8308 298.616C98.2088 297.658 102.16 295.053 100.061 293.772C97.9338 292.486 93.2979 296.211 91.7859 297.437C89.5639 299.24 86.9129 301.935 86.8129 304.755C86.6829 308.048 89.5608 306.022 91.2908 305.331Z" fill="black"/>
<path d="M90.6417 305.886C93.5167 304.579 99.0377 306.46 99.5077 305.372C100.46 303.158 96.0467 301.638 93.6647 301.344C95.8587 300.75 100.062 299.803 99.9327 297.687C99.7747 295.104 93.4857 297.325 90.3027 299.766C86.2927 302.841 86.3187 305.808 86.9817 306.402C87.8907 307.218 90.1667 306.102 90.6417 305.886Z" fill="#FDD714"/>
<path d="M59.0746 302.573C72.6196 314.861 75.5656 334.556 73.4726 351.986C73.4166 352.382 72.8046 352.298 72.7906 351.929C72.6406 347.985 72.6106 344.072 72.4506 340.177C72.3726 340.001 72.3066 339.837 72.2276 339.66C68.7256 337.311 65.4856 334.631 63.3976 330.868C61.0536 326.662 60.0116 321.857 58.1736 317.44C58.0026 317.017 58.4646 317.125 58.7726 317.335C66.9386 322.891 69.7116 329.1 72.3116 337.437C72.0376 333.068 71.5376 328.708 70.4306 324.371C68.4106 316.441 64.7136 308.647 58.7446 302.932C58.5196 302.714 58.8396 302.355 59.0746 302.573Z" fill="#263238"/>
<path d="M56.6769 304.157C54.4329 304.318 53.1619 307.963 51.4509 309.077C50.5459 309.67 49.6429 309.67 48.9569 308.782C47.1299 306.426 49.3959 303.348 51.5709 301.592C49.9949 302.311 48.7109 303.518 46.9979 303.912C45.9599 304.143 45.1329 303.787 44.8479 302.734C43.9619 299.461 48.0469 297.835 50.8849 297.658C49.4709 296.753 45.4239 294.3 47.4729 292.94C49.5489 291.574 54.3239 295.119 55.8809 296.288C58.1699 298.005 60.9209 300.597 61.1289 303.411C61.3839 306.696 58.4319 304.781 56.6769 304.157Z" fill="#FDD714"/>
<path opacity="0.1" d="M56.6769 304.157C54.4329 304.318 53.1619 307.963 51.4509 309.077C50.5459 309.67 49.6429 309.67 48.9569 308.782C47.1299 306.426 49.3959 303.348 51.5709 301.592C49.9949 302.311 48.7109 303.518 46.9979 303.912C45.9599 304.143 45.1329 303.787 44.8479 302.734C43.9619 299.461 48.0469 297.835 50.8849 297.658C49.4709 296.753 45.4239 294.3 47.4729 292.94C49.5489 291.574 54.3239 295.119 55.8809 296.288C58.1699 298.005 60.9209 300.597 61.1289 303.411C61.3839 306.696 58.4319 304.781 56.6769 304.157Z" fill="black"/>
<path d="M57.3484 304.686C54.4264 303.489 48.9794 305.579 48.4694 304.51C47.4344 302.333 51.7854 300.648 54.1544 300.263C51.9394 299.753 47.7034 298.967 47.7524 296.848C47.8114 294.261 54.1804 296.241 57.4544 298.559C61.5784 301.479 61.6654 304.445 61.0254 305.064C60.1474 305.913 57.8304 304.884 57.3484 304.686Z" fill="#FDD714"/>
<path d="M72.9266 335.026C73.9266 341.502 75.1666 348.198 77.1326 354.455C77.3206 355.025 78.1666 354.879 78.0796 354.264C77.1896 348.277 75.5676 342.4 74.6786 336.413C73.7746 330.355 73.2916 324.213 73.6386 318.086C74.2086 307.997 76.9486 297.265 83.5326 289.37C83.6776 289.183 83.3706 288.918 83.2216 289.092C70.0406 304.46 72.1376 323.303 72.1496 324.992C70.2836 318.629 68.3606 311.337 61.3026 304.858C60.9986 304.578 60.7606 304.711 60.8116 305.186C62.0736 316.987 65.3546 323.148 72.1966 329.457C72.3886 331.327 72.6296 333.188 72.9266 335.026Z" fill="#263238"/>
<path d="M83.649 291.137C86.02 290.084 89.291 293.103 91.637 293.309C92.879 293.421 93.799 292.931 94.015 291.656C94.597 288.267 90.62 286.365 87.454 285.757C89.448 285.634 91.409 286.166 93.366 285.637C94.548 285.309 95.196 284.498 94.915 283.272C94.041 279.46 89.002 280.021 86.017 281.381C86.965 279.693 89.752 275.001 86.93 274.729C84.076 274.465 81.141 280.663 80.189 282.697C78.791 285.687 77.397 289.816 78.713 292.793C80.236 296.275 82.202 292.724 83.649 291.137Z" fill="#FDD714"/>
<path opacity="0.1" d="M83.649 291.137C86.02 290.084 89.291 293.103 91.637 293.309C92.879 293.421 93.799 292.931 94.015 291.656C94.597 288.267 90.62 286.365 87.454 285.757C89.448 285.634 91.409 286.166 93.366 285.637C94.548 285.309 95.196 284.498 94.915 283.272C94.041 279.46 89.002 280.021 86.017 281.381C86.965 279.693 89.752 275.001 86.93 274.729C84.076 274.465 81.141 280.663 80.189 282.697C78.791 285.687 77.397 289.816 78.713 292.793C80.236 296.275 82.202 292.724 83.649 291.137Z" fill="black"/>
<path d="M83.2534 292.04C85.5784 289.237 92.2544 288.409 92.1934 287.044C92.0664 284.268 86.7234 284.913 84.1034 285.806C86.0804 284.085 89.9644 280.987 88.7654 278.857C87.3014 276.256 81.8944 281.727 79.8204 285.862C77.2074 291.071 78.7274 294.136 79.7154 294.419C81.0704 294.806 82.8704 292.503 83.2534 292.04Z" fill="#FDD714"/>
<path d="M64.2544 338.578L58.4414 382.994H93.8154C93.0864 379.058 86.5024 338.527 86.5024 338.527L64.2544 338.578Z" fill="#FDD714"/>
<path d="M43.373 383.143L95.029 382.9L146.686 382.812L249.999 382.644L353.312 382.811L404.968 382.899L456.625 383.143L404.968 383.388L353.312 383.476L249.999 383.642L146.686 383.475L95.029 383.386L43.373 383.143Z" fill="#263238"/>
<path d="M250 470.115C332.322 470.115 399.057 460.679 399.057 449.04C399.057 437.401 332.322 427.965 250 427.965C167.678 427.965 100.943 437.401 100.943 449.04C100.943 460.679 167.678 470.115 250 470.115Z" fill="#EBEBEB"/>
<path d="M157.574 227.672L151.365 203.242L102.327 215.705L95.8457 190.205L135.034 100.893L154.471 95.953L173.369 170.312L189.061 166.324L195.587 192.002L179.895 195.99L186.104 220.42L157.574 227.672ZM123.976 182.866L148.228 176.703L140.206 145.14L123.976 182.866Z" fill="#263238"/>
<path d="M298.023 146.118C298.023 154.214 296.795 161.665 294.343 168.473C291.888 175.281 288.515 181.168 284.222 186.136C279.927 191.104 274.868 194.968 269.044 197.727C263.216 200.487 256.868 201.867 250 201.867C243.129 201.867 236.753 200.487 230.865 197.727C224.977 194.967 219.886 191.103 215.594 186.136C211.299 181.168 207.958 175.281 205.567 168.473C203.175 161.665 201.979 154.214 201.979 146.118C201.979 138.023 203.175 130.571 205.567 123.764C207.959 116.956 211.299 111.069 215.594 106.101C219.886 101.133 224.977 97.241 230.865 94.418C236.753 91.598 243.129 90.186 250 90.186C256.868 90.186 263.215 91.598 269.044 94.418C274.868 97.241 279.927 101.133 284.222 106.101C288.515 111.069 291.888 116.956 294.343 123.764C296.795 130.571 298.023 138.023 298.023 146.118ZM268.4 146.118C268.4 137.534 266.681 130.571 263.248 125.235C259.812 119.9 255.398 117.232 250.001 117.232C244.358 117.232 239.85 119.9 236.478 125.235C233.103 130.571 231.418 137.534 231.418 146.118C231.418 154.705 233.103 161.637 236.478 166.909C239.85 172.184 244.358 174.821 250.001 174.821C255.398 174.821 259.812 172.185 263.248 166.909C266.682 161.637 268.4 154.705 268.4 146.118Z" fill="#263238"/>
<path d="M350.844 222.964L354.875 198.082L304.93 189.99L309.138 164.018L380.646 97.693L400.443 100.9L388.173 176.636L404.156 179.225L399.919 205.379L383.936 202.79L379.905 227.672L350.844 222.964ZM337.863 168.486L362.563 172.488L367.771 140.341L337.863 168.486Z" fill="#263238"/>
<path d="M208.676 72.461C206.575 72.461 204.67 72.05 202.96 71.229C201.249 70.408 199.782 69.317 198.557 67.957C197.331 66.598 196.382 65.042 195.709 63.292C195.036 61.542 194.699 59.751 194.699 57.919C194.699 56.007 195.055 54.176 195.769 52.425C196.482 50.675 197.466 49.126 198.718 47.779C199.97 46.432 201.458 45.362 203.182 44.567C204.905 43.773 206.777 43.376 208.797 43.376C210.871 43.376 212.762 43.8 214.473 44.648C216.183 45.496 217.644 46.607 218.856 47.981C220.068 49.355 221.01 50.917 221.684 52.667C222.357 54.418 222.694 56.195 222.694 58C222.694 59.913 222.343 61.736 221.644 63.474C220.943 65.211 219.974 66.746 218.735 68.079C217.496 69.412 216.015 70.476 214.292 71.27C212.567 72.064 210.696 72.461 208.676 72.461ZM200.354 57.918C200.354 59.157 200.542 60.356 200.919 61.513C201.296 62.671 201.841 63.695 202.555 64.583C203.268 65.472 204.144 66.185 205.181 66.724C206.217 67.263 207.396 67.532 208.716 67.532C210.062 67.532 211.254 67.256 212.291 66.704C213.328 66.153 214.203 65.418 214.917 64.502C215.63 63.587 216.169 62.557 216.533 61.412C216.897 60.267 217.078 59.103 217.078 57.917C217.078 56.679 216.882 55.48 216.492 54.322C216.101 53.164 215.549 52.141 214.836 51.252C214.122 50.363 213.247 49.657 212.211 49.131C211.174 48.606 210.009 48.343 208.717 48.343C207.37 48.343 206.172 48.619 205.121 49.171C204.071 49.723 203.196 50.45 202.496 51.352C201.795 52.255 201.264 53.278 200.9 54.422C200.536 55.569 200.354 56.733 200.354 57.918Z" fill="#263238"/>
<path d="M236.227 72.663C234.503 72.663 232.955 72.367 231.582 71.774C230.208 71.182 229.043 70.38 228.087 69.371C227.131 68.361 226.397 67.196 225.885 65.876C225.373 64.557 225.117 63.169 225.117 61.715C225.117 60.234 225.373 58.834 225.885 57.514C226.396 56.195 227.131 55.03 228.087 54.02C229.043 53.01 230.208 52.209 231.582 51.616C232.955 51.024 234.503 50.727 236.227 50.727C237.95 50.727 239.492 51.024 240.853 51.616C242.212 52.209 243.371 53.01 244.327 54.02C245.283 55.03 246.017 56.195 246.529 57.514C247.04 58.834 247.296 60.234 247.296 61.715C247.296 63.169 247.04 64.557 246.529 65.876C246.017 67.196 245.29 68.36 244.348 69.371C243.405 70.381 242.247 71.183 240.874 71.774C239.499 72.366 237.95 72.663 236.227 72.663ZM230.692 61.715C230.692 62.658 230.834 63.513 231.116 64.28C231.399 65.048 231.789 65.714 232.287 66.28C232.785 66.845 233.371 67.283 234.044 67.593C234.717 67.903 235.444 68.058 236.226 68.058C237.007 68.058 237.734 67.903 238.407 67.593C239.08 67.284 239.666 66.846 240.164 66.28C240.662 65.714 241.053 65.041 241.335 64.26C241.618 63.479 241.759 62.618 241.759 61.675C241.759 60.76 241.617 59.912 241.335 59.13C241.052 58.349 240.662 57.676 240.164 57.11C239.665 56.544 239.079 56.107 238.407 55.797C237.734 55.487 237.007 55.332 236.226 55.332C235.444 55.332 234.717 55.494 234.044 55.817C233.371 56.14 232.785 56.585 232.287 57.15C231.788 57.716 231.398 58.389 231.116 59.17C230.833 59.952 230.692 60.8 230.692 61.715Z" fill="#263238"/>
<path d="M263.614 72.663C261.944 72.663 260.49 72.293 259.252 71.552C258.013 70.812 257.043 69.809 256.343 68.543V80.864H250.93V51.091H255.656V54.726C256.437 53.488 257.447 52.511 258.686 51.797C259.924 51.084 261.352 50.727 262.967 50.727C264.395 50.727 265.714 51.017 266.926 51.596C268.138 52.175 269.182 52.956 270.057 53.939C270.932 54.922 271.619 56.08 272.118 57.413C272.616 58.746 272.865 60.154 272.865 61.635C272.865 63.17 272.636 64.611 272.178 65.957C271.72 67.304 271.08 68.476 270.259 69.472C269.437 70.469 268.461 71.249 267.33 71.815C266.2 72.38 264.961 72.663 263.614 72.663ZM261.797 68.058C262.605 68.058 263.352 67.883 264.039 67.533C264.725 67.183 265.311 66.712 265.796 66.119C266.28 65.527 266.657 64.84 266.927 64.058C267.197 63.277 267.331 62.47 267.331 61.635C267.331 60.746 267.183 59.918 266.887 59.151C266.59 58.383 266.18 57.717 265.655 57.151C265.13 56.586 264.51 56.141 263.797 55.818C263.083 55.495 262.309 55.333 261.475 55.333C260.963 55.333 260.438 55.421 259.9 55.596C259.361 55.771 258.863 56.02 258.405 56.344C257.947 56.667 257.537 57.045 257.173 57.475C256.81 57.906 256.533 58.378 256.345 58.889V63.858C256.83 65.07 257.571 66.073 258.567 66.867C259.561 67.661 260.639 68.058 261.797 68.058Z" fill="#263238"/>
<path d="M284.541 72.663C282.764 72.663 281.026 72.38 279.33 71.815C277.633 71.25 276.179 70.441 274.967 69.391L276.987 65.998C278.28 66.914 279.539 67.607 280.764 68.078C281.99 68.55 283.208 68.785 284.42 68.785C285.496 68.785 286.345 68.583 286.965 68.179C287.584 67.775 287.894 67.196 287.894 66.442C287.894 65.688 287.531 65.136 286.803 64.786C286.076 64.436 284.891 64.032 283.248 63.574C281.875 63.197 280.703 62.833 279.733 62.483C278.763 62.133 277.982 61.736 277.39 61.291C276.797 60.847 276.367 60.335 276.097 59.756C275.827 59.177 275.694 58.483 275.694 57.675C275.694 56.598 275.902 55.629 276.32 54.766C276.737 53.905 277.323 53.17 278.077 52.564C278.831 51.958 279.714 51.494 280.723 51.171C281.733 50.848 282.829 50.686 284.015 50.686C285.604 50.686 287.091 50.915 288.479 51.373C289.866 51.831 291.138 52.571 292.296 53.595L290.114 56.867C289.037 56.059 287.994 55.467 286.983 55.09C285.973 54.713 284.97 54.525 283.974 54.525C283.058 54.525 282.29 54.714 281.671 55.09C281.051 55.467 280.741 56.073 280.741 56.908C280.741 57.285 280.815 57.595 280.964 57.837C281.111 58.079 281.348 58.295 281.671 58.483C281.994 58.672 282.418 58.854 282.943 59.028C283.468 59.204 284.121 59.385 284.902 59.573C286.356 59.95 287.601 60.327 288.638 60.704C289.675 61.081 290.523 61.512 291.183 61.996C291.843 62.481 292.328 63.04 292.638 63.672C292.947 64.305 293.102 65.066 293.102 65.955C293.102 68.029 292.335 69.665 290.799 70.863C289.268 72.064 287.18 72.663 284.541 72.663Z" fill="#263238"/>
<path d="M297.668 61.473V43.294H303.081V61.473H297.668ZM297.668 72.259V66.159H303.081V72.259H297.668Z" fill="#263238"/>
<path d="M270.6 313.845H235.088V316.754H270.6V313.845Z" fill="#37474F"/>
<path d="M270.6 317.634H235.088V320.543H270.6V317.634Z" fill="#37474F"/>
<path d="M270.6 321.424H235.088V324.333H270.6V321.424Z" fill="#37474F"/>
<path d="M270.6 325.213H235.088V328.122H270.6V325.213Z" fill="#37474F"/>
<path d="M270.6 329.002H235.088V331.911H270.6V329.002Z" fill="#37474F"/>
<path d="M285.973 404.594H218.457V407.503H285.973V404.594Z" fill="#37474F"/>
<path d="M285.973 408.383H218.457V411.292H285.973V408.383Z" fill="#37474F"/>
<path d="M285.973 412.172H218.457V415.081H285.973V412.172Z" fill="#37474F"/>
<path d="M285.973 415.961H218.457V418.87H285.973V415.961Z" fill="#37474F"/>
<path d="M285.973 419.751H218.457V422.66H285.973V419.751Z" fill="#37474F"/>
<path d="M188.834 289.798C188.867 289.405 174.057 284.444 174.057 284.444L174.932 233.558L194.571 229.344L188.834 289.798Z" fill="#FDD714"/>
<path opacity="0.2" d="M188.834 289.798C188.867 289.405 174.057 284.444 174.057 284.444L174.932 233.558L194.571 229.344L188.834 289.798Z" fill="black"/>
<path d="M324.488 309.772C324.592 309.391 340.206 309.83 340.206 309.83L356.896 261.751L339.907 251.036L324.488 309.772Z" fill="#FDD714"/>
<path opacity="0.2" d="M324.488 309.772C324.592 309.391 340.206 309.83 340.206 309.83L356.896 261.751L339.907 251.036L324.488 309.772Z" fill="black"/>
<path d="M185.982 308.536C185.982 308.536 191.473 226.238 196.289 199.165C196.289 199.165 295.706 206.684 349.375 227.197C349.375 227.197 321.706 323.325 320.274 328.095C320.274 328.095 250.266 314.304 185.982 308.536Z" fill="#FDD714"/>
<path opacity="0.1" d="M274.721 210.155C273.105 220.064 271.469 229.97 269.776 239.866L264.652 269.545L264.376 269.126L297.687 277.039L314.325 281.071L330.944 285.183L314.237 281.444L297.549 277.626L264.208 269.838L263.871 269.759L263.932 269.418L269.237 239.771C271.02 229.891 272.861 220.021 274.721 210.155Z" fill="black"/>
<path opacity="0.1" d="M271.065 215.803C271.083 216.711 270.359 217.644 269.319 217.735C268.815 217.783 268.267 217.622 267.857 217.265C267.447 216.908 267.202 216.358 267.199 215.803C267.202 215.248 267.445 214.697 267.856 214.34C268.265 213.98 268.815 213.822 269.319 213.869C270.36 213.96 271.083 214.895 271.065 215.803ZM271.065 215.803C271.061 215.345 270.858 214.895 270.517 214.606C270.175 214.317 269.727 214.199 269.32 214.246C268.481 214.343 267.937 215.096 267.949 215.803C267.936 216.51 268.479 217.267 269.32 217.362C269.727 217.408 270.176 217.29 270.518 217.001C270.858 216.711 271.061 216.261 271.065 215.803Z" fill="black"/>
<path opacity="0.1" d="M269.319 228.048C269.337 228.956 268.613 229.89 267.573 229.98C267.069 230.028 266.521 229.867 266.111 229.51C265.701 229.153 265.456 228.603 265.453 228.048C265.456 227.493 265.699 226.942 266.11 226.585C266.519 226.225 267.069 226.067 267.573 226.114C268.615 226.206 269.338 227.141 269.319 228.048ZM269.319 228.048C269.315 227.59 269.112 227.14 268.771 226.851C268.429 226.562 267.981 226.444 267.574 226.491C266.735 226.588 266.191 227.341 266.203 228.048C266.19 228.755 266.733 229.512 267.574 229.607C267.981 229.653 268.43 229.535 268.772 229.245C269.113 228.957 269.315 228.506 269.319 228.048Z" fill="black"/>
<path opacity="0.1" d="M267.171 240.987C267.189 241.895 266.465 242.829 265.425 242.919C264.921 242.967 264.373 242.807 263.963 242.449C263.553 242.092 263.308 241.542 263.305 240.987C263.308 240.432 263.551 239.881 263.962 239.524C264.371 239.164 264.921 239.006 265.425 239.053C266.467 239.145 267.19 240.079 267.171 240.987ZM267.171 240.987C267.167 240.529 266.964 240.079 266.623 239.79C266.281 239.501 265.833 239.383 265.426 239.43C264.587 239.527 264.043 240.28 264.055 240.987C264.042 241.694 264.585 242.451 265.426 242.546C265.833 242.593 266.282 242.474 266.624 242.185C266.964 241.895 267.167 241.445 267.171 240.987Z" fill="black"/>
<path opacity="0.1" d="M265.02 253.926C265.039 254.834 264.314 255.767 263.274 255.858C262.77 255.905 262.222 255.745 261.812 255.388C261.402 255.031 261.157 254.481 261.154 253.926C261.156 253.371 261.401 252.82 261.811 252.463C262.22 252.103 262.77 251.945 263.274 251.992C264.316 252.083 265.039 253.018 265.02 253.926ZM265.02 253.926C265.016 253.468 264.813 253.018 264.471 252.729C264.129 252.44 263.681 252.322 263.274 252.369C262.435 252.466 261.891 253.219 261.903 253.926C261.89 254.633 262.433 255.39 263.274 255.485C263.681 255.531 264.13 255.413 264.472 255.124C264.813 254.834 265.016 254.384 265.02 253.926Z" fill="black"/>
<path opacity="0.1" d="M272.346 274.561C272.365 275.469 271.64 276.402 270.6 276.493C270.096 276.54 269.548 276.38 269.138 276.023C268.728 275.666 268.483 275.116 268.48 274.561C268.482 274.006 268.726 273.455 269.137 273.098C269.546 272.738 270.096 272.58 270.6 272.627C271.641 272.718 272.364 273.653 272.346 274.561ZM272.346 274.561C272.342 274.103 272.139 273.653 271.797 273.364C271.455 273.075 271.007 272.957 270.6 273.004C269.761 273.101 269.217 273.854 269.229 274.561C269.216 275.268 269.759 276.025 270.6 276.12C271.007 276.167 271.456 276.048 271.798 275.758C272.139 275.469 272.341 275.019 272.346 274.561Z" fill="black"/>
<path opacity="0.1" d="M284.559 277.54C284.578 278.448 283.853 279.382 282.813 279.472C282.309 279.519 281.761 279.359 281.351 279.002C280.941 278.645 280.696 278.095 280.693 277.54C280.696 276.985 280.94 276.434 281.35 276.077C281.759 275.717 282.309 275.559 282.813 275.606C283.855 275.698 284.578 276.632 284.559 277.54ZM284.559 277.54C284.555 277.082 284.352 276.632 284.011 276.343C283.669 276.054 283.221 275.936 282.814 275.983C281.975 276.08 281.431 276.833 281.443 277.54C281.43 278.247 281.973 279.004 282.814 279.099C283.221 279.145 283.67 279.027 284.012 278.737C284.352 278.448 284.555 277.998 284.559 277.54Z" fill="black"/>
<path opacity="0.1" d="M296.772 280.52C296.79 281.428 296.066 282.361 295.026 282.452C294.522 282.499 293.974 282.339 293.564 281.982C293.154 281.625 292.909 281.075 292.906 280.52C292.909 279.965 293.152 279.414 293.563 279.057C293.972 278.697 294.522 278.539 295.026 278.586C296.067 278.677 296.79 279.612 296.772 280.52ZM296.772 280.52C296.768 280.062 296.565 279.612 296.224 279.323C295.882 279.034 295.434 278.916 295.027 278.963C294.188 279.06 293.644 279.813 293.656 280.52C293.643 281.227 294.186 281.984 295.027 282.079C295.434 282.125 295.883 282.007 296.225 281.717C296.565 281.428 296.767 280.977 296.772 280.52Z" fill="black"/>
<path opacity="0.1" d="M308.985 283.499C309.004 284.407 308.279 285.34 307.239 285.431C306.735 285.478 306.187 285.319 305.777 284.961C305.367 284.604 305.122 284.054 305.119 283.499C305.122 282.944 305.365 282.393 305.776 282.036C306.185 281.676 306.735 281.518 307.239 281.565C308.281 281.656 309.003 282.591 308.985 283.499ZM308.985 283.499C308.981 283.041 308.778 282.591 308.437 282.302C308.095 282.013 307.647 281.895 307.24 281.942C306.401 282.039 305.857 282.792 305.869 283.499C305.856 284.206 306.399 284.963 307.24 285.058C307.647 285.104 308.096 284.986 308.438 284.697C308.778 284.407 308.981 283.957 308.985 283.499Z" fill="black"/>
<path opacity="0.1" d="M321.194 286.612C321.143 287.519 320.349 288.394 319.305 288.404C318.799 288.413 318.265 288.211 317.883 287.823C317.501 287.435 317.299 286.869 317.339 286.315C317.384 285.762 317.67 285.232 318.107 284.907C318.543 284.58 319.103 284.464 319.602 284.55C320.634 284.721 321.282 285.709 321.194 286.612ZM321.194 286.612C321.225 286.155 321.057 285.691 320.739 285.376C320.42 285.061 319.982 284.909 319.573 284.925C318.729 284.957 318.128 285.666 318.086 286.372C318.018 287.076 318.502 287.872 319.333 288.032C319.735 288.11 320.192 288.027 320.555 287.764C320.918 287.502 321.155 287.069 321.194 286.612Z" fill="black"/>
<path opacity="0.1" d="M262.87 266.865C262.888 267.773 262.164 268.707 261.124 268.797C260.62 268.845 260.072 268.685 259.662 268.327C259.252 267.97 259.007 267.42 259.004 266.865C259.007 266.31 259.251 265.759 259.661 265.402C260.07 265.042 260.62 264.883 261.124 264.931C262.166 265.022 262.889 265.957 262.87 266.865ZM262.87 266.865C262.866 266.407 262.663 265.957 262.321 265.668C261.979 265.379 261.531 265.261 261.124 265.308C260.285 265.405 259.741 266.158 259.753 266.865C259.74 267.572 260.283 268.329 261.124 268.424C261.531 268.47 261.98 268.352 262.321 268.062C262.664 267.773 262.866 267.323 262.87 266.865Z" fill="black"/>
<path opacity="0.2" d="M242.304 288.304C253.897 277.879 254.845 260.03 244.421 248.436C233.996 236.842 216.147 235.894 204.553 246.319C192.959 256.743 192.011 274.593 202.436 286.187C212.86 297.78 230.71 298.728 242.304 288.304Z" fill="black"/>
<path d="M244.593 275.327C249.02 263.633 243.128 250.565 231.434 246.138C219.74 241.712 206.672 247.603 202.245 259.297C197.819 270.991 203.71 284.06 215.404 288.486C227.098 292.913 240.167 287.021 244.593 275.327Z" fill="#263238"/>
<path d="M222.062 258.988L216.77 258.13L215.912 263.423L221.205 264.281L222.062 258.988Z" fill="#FDD714"/>
<path d="M217.627 252.838L212.334 251.981L211.477 257.274L216.769 258.131L217.627 252.838Z" fill="#FDD714"/>
<path d="M238.799 256.267L233.506 255.41L232.648 260.703L237.941 261.56L238.799 256.267Z" fill="#FDD714"/>
<path d="M214.217 273.889L208.924 273.032L208.066 278.325L213.359 279.182L214.217 273.889Z" fill="#FDD714"/>
<path d="M235.389 277.319L230.096 276.461L229.238 281.754L234.531 282.612L235.389 277.319Z" fill="#FDD714"/>
<path d="M220.367 269.455L215.074 268.597L214.217 273.89L219.51 274.747L220.367 269.455Z" fill="#FDD714"/>
<path d="M226.508 265.079L221.215 264.221L220.357 269.514L225.65 270.371L226.508 265.079Z" fill="#FDD714"/>
<path d="M232.648 260.703L227.355 259.845L226.498 265.138L231.791 265.995L232.648 260.703Z" fill="#FDD714"/>
<path d="M230.959 271.166L225.666 270.309L224.809 275.601L230.101 276.459L230.959 271.166Z" fill="#FDD714"/>
<path d="M321.029 297.021C330.911 284.961 329.145 267.173 317.085 257.291C305.025 247.409 287.238 249.175 277.356 261.235C267.474 273.295 269.24 291.083 281.3 300.965C293.36 310.846 311.147 309.081 321.029 297.021Z" fill="#FDD714"/>
<path opacity="0.2" d="M321.029 297.021C330.911 284.961 329.145 267.173 317.085 257.291C305.025 247.409 287.238 249.175 277.356 261.235C267.474 273.295 269.24 291.083 281.3 300.965C293.36 310.846 311.147 309.081 321.029 297.021Z" fill="black"/>
<path opacity="0.2" d="M326.66 285.672C326.53 286.228 326.382 286.765 326.215 287.302L271.188 275.565C271.317 274.583 271.493 273.601 271.724 272.61C275.328 257.445 290.548 248.07 305.723 251.673C320.889 255.277 330.264 270.497 326.66 285.672Z" fill="black"/>
<path d="M307.915 300.035C319.453 295.215 324.899 281.954 320.078 270.416C315.258 258.879 301.997 253.433 290.459 258.254C278.922 263.074 273.476 276.335 278.296 287.873C283.117 299.41 296.378 304.856 307.915 300.035Z" fill="#263238"/>
<path d="M304.891 266.77L299.674 265.531L293.503 291.496L298.72 292.736L304.891 266.77Z" fill="#FDD714"/>
<path d="M328.299 285.141L270.498 271.404C274.291 255.446 290.307 245.586 306.265 249.378C322.224 253.172 332.092 269.183 328.299 285.141Z" fill="#FDD714"/>
<path opacity="0.2" d="M328.299 285.141L270.498 271.404C274.291 255.446 290.307 245.586 306.265 249.378C322.224 253.172 332.092 269.183 328.299 285.141Z" fill="black"/>
<path opacity="0.1" d="M250.072 295.922C250.218 293.665 251.047 291.376 252.684 289.566C253.491 288.654 254.568 287.938 255.754 287.502C256.946 287.064 258.234 286.987 259.455 287.091C260.698 287.236 261.967 287.674 263.003 288.458C264.019 289.258 264.798 290.301 265.256 291.424C266.199 293.662 266.302 296.054 265.845 298.272C265.469 296.055 264.896 293.902 263.855 292.135C262.822 290.354 261.188 289.247 259.241 289.075C257.255 288.828 255.317 289.361 253.756 290.68C252.195 291.995 251.003 293.878 250.072 295.922Z" fill="black"/>
<path d="M193.715 238.34C193.949 235.324 194.288 232.322 194.574 229.313C194.895 226.309 195.225 223.306 195.59 220.309C195.937 217.309 196.328 214.315 196.712 211.319C197.088 208.323 197.522 205.335 197.924 202.342L198.031 201.543L198.841 201.594C205.355 202.004 211.855 202.53 218.346 203.198C221.591 203.531 224.832 203.908 228.069 204.324C231.3 204.788 234.536 205.216 237.748 205.804L218.231 204.596L198.734 203.335L199.651 202.587C199.208 205.574 198.796 208.565 198.327 211.548C197.865 214.532 197.41 217.517 196.912 220.496C196.432 223.477 195.917 226.454 195.392 229.429C194.833 232.399 194.326 235.377 193.715 238.34Z" fill="white"/>
<path d="M198.41 261.156C199.065 257.53 200.713 254.075 202.927 251.066C203.478 250.309 204.105 249.61 204.708 248.89C205.361 248.216 206.04 247.564 206.71 246.903C207.441 246.309 208.179 245.72 208.929 245.149C209.726 244.644 210.513 244.117 211.323 243.632C212.176 243.222 213.024 242.8 213.885 242.41L216.567 241.482L219.343 240.909C220.275 240.773 221.222 240.744 222.157 240.674C225.921 240.577 229.626 241.38 233.026 242.757C229.407 242.079 225.801 241.703 222.246 242.042C218.7 242.372 215.254 243.432 212.173 245.168C209.068 246.863 206.318 249.201 203.995 251.917C201.682 254.647 199.767 257.739 198.41 261.156Z" fill="white"/>
<path d="M276.285 268.782C277.435 265.281 279.544 262.087 282.152 259.412C282.802 258.739 283.52 258.133 284.217 257.503C284.956 256.926 285.719 256.374 286.474 255.811C287.28 255.323 288.092 254.842 288.914 254.38C289.773 253.99 290.625 253.576 291.495 253.208C292.397 252.92 293.295 252.619 294.201 252.352L296.986 251.803L299.815 251.619C300.757 251.612 301.698 251.715 302.634 251.774C306.376 252.198 309.933 253.505 313.111 255.338C309.62 254.167 306.101 253.296 302.533 253.142C298.975 252.98 295.416 253.554 292.125 254.848C288.816 256.098 285.769 258.034 283.093 260.403C280.423 262.788 278.1 265.585 276.285 268.782Z" fill="white"/>
<path d="M189.14 359.252C181.908 359.252 166.076 357.626 155.888 344.527C142.854 327.769 147.565 295.613 147.771 294.252L153.43 295.111C153.383 295.42 148.886 326.201 160.406 341.013C171.669 355.494 192.098 353.415 192.303 353.39L192.947 359.077C192.724 359.104 191.323 359.252 189.14 359.252Z" fill="#FDD714"/>
<path opacity="0.4" d="M189.14 359.252C181.908 359.252 166.076 357.626 155.888 344.527C142.854 327.769 147.565 295.613 147.771 294.252L153.43 295.111C153.383 295.42 148.886 326.201 160.406 341.013C171.669 355.494 192.098 353.415 192.303 353.39L192.947 359.077C192.724 359.104 191.323 359.252 189.14 359.252Z" fill="white"/>
<path d="M155.096 299.005C154.064 299.005 153.01 298.919 151.937 298.745C142.391 297.199 138.165 291.487 136.3 286.967C134.431 282.437 133.999 276.957 135.016 270.681L147.122 272.643C146.492 276.531 146.675 279.958 147.637 282.29C148.323 283.954 149.655 285.952 153.898 286.639C155.836 286.953 157.931 286.787 160.125 283.478C161.818 280.924 162.836 277.448 163.192 275.246L175.298 277.207C175.018 278.939 173.831 284.999 170.346 290.255C166.556 295.972 161.221 299.005 155.096 299.005Z" fill="#FDD714"/>
<path d="M201.099 375.633C201.078 375.372 190.843 373.737 190.843 373.737L185.875 340.332L198.272 335.435L201.099 375.633Z" fill="#FDD714"/>
<path opacity="0.2" d="M201.099 375.633C201.078 375.372 190.843 373.737 190.843 373.737L185.875 340.332L198.272 335.435L201.099 375.633Z" fill="black"/>
<path d="M302.295 375.695C302.322 375.435 312.591 374.026 312.591 374.026L318.296 340.739L306.01 335.569L302.295 375.695Z" fill="#FDD714"/>
<path opacity="0.2" d="M302.295 375.695C302.322 375.435 312.591 374.026 312.591 374.026L318.296 340.739L306.01 335.569L302.295 375.695Z" fill="black"/>
<path d="M196.841 327.955C196.841 327.955 279.627 324.415 307.592 329.076C307.592 329.076 299.38 409.182 298.936 410.736C298.936 410.736 216.585 410.514 203.712 410.736C203.712 410.736 196.735 357.469 196.841 327.955Z" fill="#FDD714"/>
<path opacity="0.2" d="M221.986 349.906C221.986 349.906 267.179 348.121 282.446 350.471C282.446 350.471 277.963 390.865 277.721 391.648C277.721 391.648 232.765 391.536 225.738 391.648C225.736 391.648 222.648 364.002 221.986 349.906Z" fill="black"/>
<path opacity="0.2" d="M228.162 391.631C227.127 391.631 226.307 391.644 225.733 391.651C225.733 391.651 222.649 364 221.982 349.904C221.982 349.904 223.01 349.864 224.805 349.804L228.162 391.631Z" fill="black"/>
<path d="M241.492 359.873C238.959 359.075 236.26 360.481 235.462 363.012C234.663 365.548 236.071 368.244 238.604 369.042C241.135 369.84 243.831 368.435 244.629 365.902C245.427 363.372 244.023 360.671 241.492 359.873ZM244.072 365.726C243.371 367.952 241.002 369.186 238.779 368.485C236.556 367.784 235.321 365.416 236.023 363.19C236.724 360.967 239.093 359.732 241.318 360.434C243.538 361.134 244.773 363.503 244.072 365.726ZM241.492 359.873C238.959 359.075 236.26 360.481 235.462 363.012C234.663 365.548 236.071 368.244 238.604 369.042C241.135 369.84 243.831 368.435 244.629 365.902C245.427 363.372 244.023 360.671 241.492 359.873ZM244.072 365.726C243.371 367.952 241.002 369.186 238.779 368.485C236.556 367.784 235.321 365.416 236.023 363.19C236.724 360.967 239.093 359.732 241.318 360.434C243.538 361.134 244.773 363.503 244.072 365.726ZM241.492 359.873C238.959 359.075 236.26 360.481 235.462 363.012C234.663 365.548 236.071 368.244 238.604 369.042C241.135 369.84 243.831 368.435 244.629 365.902C245.427 363.372 244.023 360.671 241.492 359.873ZM244.072 365.726C243.371 367.952 241.002 369.186 238.779 368.485C236.556 367.784 235.321 365.416 236.023 363.19C236.724 360.967 239.093 359.732 241.318 360.434C243.538 361.134 244.773 363.503 244.072 365.726ZM243.094 354.795C237.753 353.113 232.066 356.08 230.383 361.413C228.702 366.749 231.663 372.44 237.002 374.121C242.335 375.801 248.027 372.838 249.708 367.502C251.391 362.169 248.428 356.475 243.094 354.795ZM245.344 366.126C244.423 369.049 241.299 370.677 238.379 369.756C235.459 368.836 233.831 365.712 234.751 362.789C235.672 359.866 238.798 358.241 241.718 359.161C244.636 360.082 246.264 363.206 245.344 366.126ZM244.629 365.903C245.427 363.372 244.023 360.672 241.492 359.874C238.959 359.076 236.26 360.482 235.462 363.013C234.663 365.549 236.071 368.245 238.604 369.043C241.135 369.841 243.831 368.436 244.629 365.903ZM244.072 365.726C243.371 367.952 241.002 369.186 238.779 368.485C236.556 367.784 235.321 365.416 236.023 363.19C236.724 360.967 239.093 359.732 241.318 360.434C243.538 361.134 244.773 363.503 244.072 365.726ZM241.492 359.873C238.959 359.075 236.26 360.481 235.462 363.012C234.663 365.548 236.071 368.244 238.604 369.042C241.135 369.84 243.831 368.435 244.629 365.902C245.427 363.372 244.023 360.671 241.492 359.873ZM244.072 365.726C243.371 367.952 241.002 369.186 238.779 368.485C236.556 367.784 235.321 365.416 236.023 363.19C236.724 360.967 239.093 359.732 241.318 360.434C243.538 361.134 244.773 363.503 244.072 365.726ZM241.492 359.873C238.959 359.075 236.26 360.481 235.462 363.012C234.663 365.548 236.071 368.244 238.604 369.042C241.135 369.84 243.831 368.435 244.629 365.902C245.427 363.372 244.023 360.671 241.492 359.873ZM244.072 365.726C243.371 367.952 241.002 369.186 238.779 368.485C236.556 367.784 235.321 365.416 236.023 363.19C236.724 360.967 239.093 359.732 241.318 360.434C243.538 361.134 244.773 363.503 244.072 365.726Z" fill="#FDD714"/>
<path d="M238.985 374.305L235.27 373.134L234.646 375.829L237.951 376.87L238.985 374.305Z" fill="#FDD714"/>
<path d="M232.31 370.825L230.51 367.37L228.164 368.835L229.764 371.908L232.31 370.825Z" fill="#FDD714"/>
<path d="M230.048 363.642L231.218 359.927L228.524 359.304L227.482 362.608L230.048 363.642Z" fill="#FDD714"/>
<path d="M233.528 356.965L236.983 355.166L235.518 352.819L232.445 354.42L233.528 356.965Z" fill="#FDD714"/>
<path d="M240.711 354.704L244.427 355.875L245.05 353.18L241.746 352.139L240.711 354.704Z" fill="#FDD714"/>
<path d="M247.389 358.184L249.188 361.639L251.535 360.175L249.934 357.102L247.389 358.184Z" fill="#FDD714"/>
<path d="M249.65 365.367L248.479 369.082L251.174 369.706L252.215 366.401L249.65 365.367Z" fill="#FDD714"/>
<path d="M246.169 372.044L242.713 373.844L244.178 376.19L247.251 374.59L246.169 372.044Z" fill="#FDD714"/>
<path d="M257.833 374.012C256.335 373.036 254.33 373.461 253.355 374.957C252.378 376.457 252.804 378.46 254.302 379.436C255.799 380.411 257.801 379.987 258.777 378.489C259.752 376.993 259.33 374.987 257.833 374.012ZM258.448 378.274C257.591 379.591 255.831 379.963 254.516 379.106C253.201 378.25 252.829 376.49 253.686 375.174C254.542 373.859 256.302 373.487 257.618 374.344C258.932 375.2 259.304 376.959 258.448 378.274ZM257.833 374.012C256.335 373.036 254.33 373.461 253.355 374.957C252.378 376.457 252.804 378.46 254.302 379.436C255.799 380.411 257.801 379.987 258.777 378.489C259.752 376.993 259.33 374.987 257.833 374.012ZM258.448 378.274C257.591 379.591 255.831 379.963 254.516 379.106C253.201 378.25 252.829 376.49 253.686 375.174C254.542 373.859 256.302 373.487 257.618 374.344C258.932 375.2 259.304 376.959 258.448 378.274ZM257.833 374.012C256.335 373.036 254.33 373.461 253.355 374.957C252.378 376.457 252.804 378.46 254.302 379.436C255.799 380.411 257.801 379.987 258.777 378.489C259.752 376.993 259.33 374.987 257.833 374.012ZM258.448 378.274C257.591 379.591 255.831 379.963 254.516 379.106C253.201 378.25 252.829 376.49 253.686 375.174C254.542 373.859 256.302 373.487 257.618 374.344C258.932 375.2 259.304 376.959 258.448 378.274ZM259.79 371.009C256.63 368.953 252.406 369.848 250.35 373.003C248.295 376.16 249.186 380.386 252.344 382.441C255.499 384.495 259.726 383.602 261.781 380.446C263.837 377.291 262.945 373.063 259.79 371.009ZM259.2 378.764C258.074 380.493 255.754 380.984 254.027 379.859C252.3 378.734 251.808 376.414 252.934 374.685C254.06 372.956 256.381 372.467 258.108 373.592C259.834 374.716 260.325 377.036 259.2 378.764ZM258.777 378.489C259.752 376.992 259.33 374.988 257.833 374.013C256.335 373.037 254.33 373.462 253.355 374.958C252.378 376.458 252.804 378.461 254.302 379.437C255.799 380.412 257.801 379.987 258.777 378.489ZM258.448 378.274C257.591 379.591 255.831 379.963 254.516 379.106C253.201 378.25 252.829 376.49 253.686 375.174C254.542 373.859 256.302 373.487 257.618 374.344C258.932 375.2 259.304 376.959 258.448 378.274ZM257.833 374.012C256.335 373.036 254.33 373.461 253.355 374.957C252.378 376.457 252.804 378.46 254.302 379.436C255.799 380.411 257.801 379.987 258.777 378.489C259.752 376.993 259.33 374.987 257.833 374.012ZM258.448 378.274C257.591 379.591 255.831 379.963 254.516 379.106C253.201 378.25 252.829 376.49 253.686 375.174C254.542 373.859 256.302 373.487 257.618 374.344C258.932 375.2 259.304 376.959 258.448 378.274ZM257.833 374.012C256.335 373.036 254.33 373.461 253.355 374.957C252.378 376.457 252.804 378.46 254.302 379.436C255.799 380.411 257.801 379.987 258.777 378.489C259.752 376.993 259.33 374.987 257.833 374.012ZM258.448 378.274C257.591 379.591 255.831 379.963 254.516 379.106C253.201 378.25 252.829 376.49 253.686 375.174C254.542 373.859 256.302 373.487 257.618 374.344C258.932 375.2 259.304 376.959 258.448 378.274Z" fill="#DBDBDB"/>
<path d="M253.599 382.918L251.401 381.487L250.51 383.122L252.465 384.395L253.599 382.918Z" fill="#DBDBDB"/>
<path d="M249.897 379.454L249.355 376.888L247.568 377.414L248.051 379.696L249.897 379.454Z" fill="#DBDBDB"/>
<path d="M249.731 374.387L251.162 372.189L249.527 371.298L248.254 373.253L249.731 374.387Z" fill="#DBDBDB"/>
<path d="M253.195 370.686L255.761 370.144L255.235 368.358L252.953 368.84L253.195 370.686Z" fill="#DBDBDB"/>
<path d="M258.262 370.519L260.459 371.95L261.351 370.315L259.396 369.042L258.262 370.519Z" fill="#DBDBDB"/>
<path d="M261.963 373.983L262.505 376.549L264.291 376.023L263.809 373.741L261.963 373.983Z" fill="#DBDBDB"/>
<path d="M262.13 379.05L260.699 381.248L262.334 382.139L263.607 380.184L262.13 379.05Z" fill="#DBDBDB"/>
<path d="M258.666 382.751L256.1 383.293L256.625 385.079L258.908 384.597L258.666 382.751Z" fill="#DBDBDB"/>
<path d="M305.594 401.414L308.776 402.006L317.875 340.379L314.25 339.713L305.594 401.414Z" fill="#FDD714"/>
<path d="M277.721 391.648L282.446 350.471L314.25 339.713C314.25 339.713 305.594 402.08 305.594 401.414L277.721 391.648Z" fill="#FDD714"/>
<path opacity="0.4" d="M277.721 391.648L282.446 350.471L314.25 339.713C314.25 339.713 305.594 402.08 305.594 401.414L277.721 391.648Z" fill="white"/>
<path d="M200.639 352.139C200.121 348.728 199.841 345.289 199.628 341.847C199.53 340.125 199.486 338.401 199.448 336.677C199.414 334.953 199.384 333.227 199.435 331.502L199.449 331.049L199.89 331.025C206.208 330.686 212.522 330.271 218.844 329.995C225.164 329.683 231.484 329.4 237.809 329.202C231.504 329.773 225.196 330.259 218.886 330.717C212.578 331.21 206.263 331.564 199.952 331.994L200.406 331.517L200.38 336.667L200.44 341.819C200.449 343.538 200.48 345.256 200.53 346.975L200.639 352.139Z" fill="white"/>
<path d="M286.881 351.075C288.851 350.139 290.852 349.269 292.877 348.466C294.896 347.644 296.933 346.866 298.994 346.152C301.058 345.447 303.129 344.757 305.235 344.172C307.337 343.58 309.459 343.033 311.627 342.678L312.16 342.591L312.065 343.1C311.566 345.766 311.044 348.428 310.427 351.075C310.658 348.367 310.984 345.673 311.333 342.984L311.771 343.406C309.67 343.907 307.586 344.493 305.508 345.107C303.432 345.728 301.362 346.382 299.298 347.054L286.881 351.075Z" fill="white"/>
<path opacity="0.1" d="M214.402 328.122L214.938 338.421L215.396 348.723L216.19 369.331L216.811 389.945L217.059 400.254L217.229 410.566L216.692 400.267L216.234 389.965L215.441 369.357L214.822 348.743L214.573 338.434L214.402 328.122Z" fill="black"/>
<path opacity="0.1" d="M211.453 334.33C211.651 335.217 211.125 336.275 210.124 336.569C209.639 336.715 209.071 336.667 208.598 336.397C208.125 336.128 207.776 335.638 207.664 335.094C207.557 334.549 207.687 333.961 208.019 333.53C208.349 333.097 208.857 332.832 209.36 332.779C210.398 332.663 211.292 333.437 211.453 334.33ZM211.453 334.33C211.358 333.882 211.07 333.481 210.679 333.265C210.287 333.049 209.824 333.022 209.434 333.149C208.631 333.41 208.246 334.255 208.398 334.947C208.525 335.642 209.207 336.277 210.05 336.204C210.458 336.169 210.875 335.965 211.152 335.613C211.43 335.262 211.539 334.78 211.453 334.33Z" fill="black"/>
<path opacity="0.1" d="M212.162 346.679C212.36 347.566 211.834 348.624 210.833 348.918C210.348 349.064 209.78 349.016 209.307 348.746C208.834 348.477 208.485 347.987 208.373 347.443C208.266 346.898 208.396 346.31 208.728 345.879C209.058 345.446 209.566 345.181 210.069 345.128C211.107 345.012 212.001 345.786 212.162 346.679ZM212.162 346.679C212.067 346.231 211.779 345.83 211.388 345.614C210.996 345.398 210.533 345.371 210.143 345.498C209.34 345.759 208.955 346.605 209.107 347.296C209.234 347.991 209.916 348.626 210.759 348.553C211.167 348.518 211.584 348.313 211.862 347.962C212.139 347.611 212.249 347.129 212.162 346.679Z" fill="black"/>
<path opacity="0.1" d="M212.611 359.788C212.809 360.675 212.283 361.733 211.282 362.027C210.797 362.173 210.229 362.125 209.756 361.855C209.283 361.586 208.934 361.096 208.822 360.552C208.715 360.008 208.845 359.419 209.177 358.988C209.507 358.554 210.015 358.29 210.518 358.237C211.556 358.121 212.45 358.895 212.611 359.788ZM212.611 359.788C212.516 359.34 212.228 358.939 211.837 358.723C211.445 358.507 210.982 358.48 210.592 358.607C209.789 358.868 209.404 359.713 209.556 360.404C209.683 361.1 210.365 361.734 211.208 361.661C211.616 361.626 212.033 361.422 212.31 361.07C212.588 360.719 212.697 360.238 212.611 359.788Z" fill="black"/>
<path opacity="0.1" d="M213.062 372.896C213.26 373.783 212.734 374.841 211.733 375.135C211.248 375.281 210.68 375.233 210.207 374.963C209.734 374.694 209.385 374.204 209.273 373.66C209.166 373.115 209.296 372.527 209.628 372.096C209.958 371.663 210.465 371.398 210.969 371.345C212.007 371.229 212.901 372.003 213.062 372.896ZM213.062 372.896C212.967 372.448 212.68 372.047 212.288 371.831C211.896 371.615 211.433 371.588 211.043 371.715C210.24 371.976 209.855 372.821 210.007 373.513C210.134 374.208 210.816 374.843 211.659 374.77C212.067 374.735 212.484 374.531 212.761 374.179C213.039 373.828 213.148 373.346 213.062 372.896Z" fill="black"/>
<path opacity="0.1" d="M213.511 386.005C213.709 386.892 213.183 387.95 212.182 388.244C211.697 388.39 211.129 388.342 210.656 388.072C210.183 387.803 209.834 387.313 209.722 386.769C209.615 386.224 209.745 385.636 210.077 385.205C210.407 384.772 210.915 384.507 211.418 384.454C212.456 384.338 213.35 385.111 213.511 386.005ZM213.511 386.005C213.416 385.557 213.128 385.156 212.737 384.94C212.345 384.724 211.882 384.697 211.492 384.824C210.689 385.085 210.304 385.93 210.456 386.622C210.583 387.318 211.265 387.952 212.108 387.879C212.516 387.844 212.933 387.64 213.211 387.288C213.488 386.936 213.597 386.454 213.511 386.005Z" fill="black"/>
<path opacity="0.1" d="M213.962 399.113C214.16 400 213.634 401.058 212.633 401.352C212.148 401.498 211.58 401.45 211.107 401.18C210.634 400.911 210.285 400.421 210.173 399.877C210.066 399.333 210.196 398.744 210.528 398.313C210.858 397.879 211.365 397.615 211.869 397.562C212.907 397.446 213.8 398.22 213.962 399.113ZM213.962 399.113C213.867 398.665 213.579 398.264 213.188 398.048C212.796 397.832 212.333 397.805 211.943 397.932C211.14 398.193 210.755 399.038 210.907 399.73C211.034 400.426 211.716 401.06 212.559 400.987C212.967 400.952 213.384 400.747 213.661 400.396C213.939 400.044 214.048 399.563 213.962 399.113Z" fill="black"/>
<path d="M218.008 419.158L171.133 433.362L172.792 438.839L219.667 424.635L218.008 419.158Z" fill="#FDD714"/>
<path opacity="0.4" d="M218.008 419.158L171.133 433.362L172.792 438.839L219.667 424.635L218.008 419.158Z" fill="white"/>
<path d="M195.581 424.094L190.127 425.829L192.704 433.931L198.158 432.196L195.581 424.094Z" fill="#FDD714"/>
<path d="M172.426 446.863L160.33 394.484L123.82 403.14L141.798 454.187L172.426 446.863Z" fill="#FDD714"/>
<path d="M180.527 444.2L172.426 446.863L160.33 394.484L171.982 397.258L180.527 444.2Z" fill="#FDD714"/>
<path opacity="0.2" d="M180.527 444.2L172.426 446.863L160.33 394.484L171.982 397.258L180.527 444.2Z" fill="black"/>
<path d="M218.859 428.108C222.29 428.108 225.073 425.326 225.073 421.894C225.073 418.462 222.29 415.68 218.859 415.68C215.427 415.68 212.645 418.462 212.645 421.894C212.645 425.326 215.427 428.108 218.859 428.108Z" fill="#FDD714"/>
<path d="M282.802 419.006L281.131 424.48L327.976 438.782L329.647 433.308L282.802 419.006Z" fill="#FDD714"/>
<path opacity="0.4" d="M282.802 419.006L281.131 424.48L327.976 438.782L329.647 433.308L282.802 419.006Z" fill="white"/>
<path d="M305.262 423.967L302.668 432.063L308.118 433.809L310.712 425.714L305.262 423.967Z" fill="#FDD714"/>
<path d="M328.357 446.818L340.565 394.464L377.056 403.198L358.97 454.207L328.357 446.818Z" fill="#FDD714"/>
<path d="M320.262 444.137L328.357 446.818L340.565 394.464L328.907 397.214L320.262 444.137Z" fill="#FDD714"/>
<path opacity="0.2" d="M320.262 444.137L328.357 446.818L340.565 394.464L328.907 397.214L320.262 444.137Z" fill="black"/>
<path d="M275.764 421.737C275.757 425.169 278.533 427.957 281.965 427.965C285.397 427.972 288.185 425.196 288.193 421.764C288.2 418.332 285.424 415.544 281.992 415.536C278.559 415.528 275.771 418.305 275.764 421.737Z" fill="#FDD714"/>
<path d="M322.662 357.132C322.809 356.994 337.865 343.029 355.577 347.806C373.689 352.693 388.643 379.973 388.791 380.249L393.825 377.528C393.171 376.317 377.574 347.804 357.066 342.282C336.209 336.657 319.424 352.316 318.719 352.986L322.662 357.132Z" fill="#FDD714"/>
<path opacity="0.4" d="M322.662 357.132C322.809 356.994 337.865 343.029 355.577 347.806C373.689 352.693 388.643 379.973 388.791 380.249L393.825 377.528C393.171 376.317 377.574 347.804 357.066 342.282C336.209 336.657 319.424 352.316 318.719 352.986L322.662 357.132Z" fill="white"/>
<path d="M382.116 407.712L392.962 401.986C391.921 400.015 390.639 396.627 390.453 393.568C390.212 389.604 391.785 388.21 393.52 387.293C397.32 385.286 399.588 386.082 401.137 386.994C403.31 388.277 405.52 390.902 407.359 394.386L418.205 388.66C415.237 383.038 411.592 378.924 407.371 376.432C403.16 373.95 396.346 371.933 387.794 376.447C381.128 379.966 377.725 386.311 378.212 394.312C378.594 400.608 381.297 406.16 382.116 407.712Z" fill="#FDD714"/>
<path d="M324.947 338.022C327.298 336.398 329.704 334.868 332.119 333.352C334.528 331.827 336.977 330.369 339.426 328.911C341.887 327.474 344.349 326.039 346.851 324.67L350.605 322.62C351.875 321.968 353.127 321.287 354.413 320.661C353.243 321.482 352.04 322.247 350.854 323.042L347.242 325.332C344.832 326.857 342.384 328.315 339.934 329.771C337.472 331.207 335.01 332.642 332.508 334.01C330.012 335.39 327.507 336.753 324.947 338.022Z" fill="#263238"/>
<path d="M318.719 361.423C322.085 363.341 325.276 365.506 328.424 367.731C331.554 369.981 334.64 372.292 337.548 374.852C334.18 372.936 330.99 370.771 327.843 368.544C324.715 366.293 321.629 363.982 318.719 361.423Z" fill="#263238"/>
<path d="M324.248 358.545C326.846 359.334 329.404 360.226 331.955 361.133C334.511 362.029 337.039 362.999 339.566 363.969C342.085 364.961 344.603 365.955 347.093 367.021L350.827 368.623C352.058 369.191 353.302 369.727 354.522 370.324C353.22 369.939 351.94 369.493 350.649 369.08L346.814 367.738C344.258 366.841 341.73 365.872 339.204 364.901C336.686 363.908 334.167 362.914 331.678 361.847C329.184 360.79 326.697 359.719 324.248 358.545Z" fill="#263238"/>
<path d="M331.629 340.217C334.119 339.57 336.627 339.031 339.139 338.508C341.648 337.974 344.172 337.518 346.695 337.061C349.222 336.628 351.75 336.197 354.291 335.842L358.103 335.313C359.38 335.173 360.651 334.999 361.934 334.889C360.691 335.223 359.437 335.493 358.188 335.796L354.424 336.599C351.914 337.132 349.391 337.589 346.868 338.044C344.34 338.475 341.813 338.907 339.272 339.261C336.733 339.628 334.19 339.977 331.629 340.217Z" fill="#263238"/>
<path d="M271.621 355.787C272.043 353.764 272.722 351.792 273.6 349.912C274.479 348.034 275.555 346.233 276.905 344.632C278.259 343.048 279.925 341.651 281.93 340.878C283.935 340.131 286.23 340.137 288.241 340.94C290.276 341.733 291.881 343.443 292.746 345.409C293.195 346.391 293.476 347.444 293.592 348.521C293.693 349.596 293.65 350.714 293.222 351.788C293.004 352.316 292.663 352.849 292.117 353.204C291.853 353.388 291.53 353.493 291.213 353.542C290.901 353.587 290.581 353.573 290.217 353.447C289.548 353.162 289.213 352.624 288.925 352.139C288.668 351.635 288.47 351.119 288.335 350.598C287.773 348.511 287.716 346.388 287.815 344.289C288.113 340.108 289.211 335.926 291.464 332.328C292.601 330.55 294.027 328.913 295.8 327.717C297.55 326.513 299.599 325.684 301.691 325.444C302.72 325.195 303.783 325.218 304.834 325.167C305.361 325.111 305.884 325.239 306.409 325.266C306.93 325.335 307.464 325.326 307.971 325.477C310.049 325.85 312.002 326.684 313.826 327.693C315.639 328.738 317.254 330.08 318.728 331.536C320.189 333.007 321.518 334.616 322.586 336.388C320.221 333.013 317.176 330.083 313.586 328.121C311.779 327.182 309.87 326.411 307.859 326.099C307.368 325.962 306.853 325.986 306.351 325.93C305.846 325.915 305.343 325.8 304.837 325.868C303.828 325.942 302.812 325.937 301.827 326.202C299.811 326.486 297.941 327.297 296.295 328.427C294.641 329.559 293.307 331.112 292.235 332.812C290.112 336.251 289.072 340.313 288.813 344.349C288.7 346.366 288.751 348.428 289.255 350.344C289.496 351.26 289.929 352.292 290.56 352.581C290.641 352.589 290.695 352.632 290.793 352.635C290.891 352.627 290.996 352.649 291.089 352.625C291.279 352.594 291.464 352.543 291.623 352.429C291.951 352.223 292.211 351.857 292.386 351.437C292.737 350.587 292.801 349.579 292.713 348.608C292.615 347.631 292.365 346.661 291.961 345.761C291.17 343.962 289.767 342.408 287.949 341.646C286.141 340.878 284.024 340.816 282.147 341.469C280.261 342.146 278.632 343.446 277.274 344.953C274.549 348.003 272.712 351.818 271.621 355.787Z" fill="#263238"/>
<path d="M179.217 381.703C180.182 379.884 181.601 378.31 183.258 377.066C184.913 375.822 186.813 374.857 188.858 374.384C190.892 373.897 193.077 373.889 195.112 374.507C197.148 375.116 198.982 376.31 200.45 377.831C201.928 379.351 203.033 381.197 203.792 383.16C204.537 385.127 204.984 387.234 204.826 389.389C204.719 390.449 204.504 391.594 203.665 392.511C203.249 392.962 202.607 393.26 201.98 393.27C201.378 393.264 200.809 393.175 200.257 392.88C199.708 392.597 199.268 392.105 199.017 391.561C198.762 391.016 198.667 390.439 198.641 389.881C198.601 388.761 198.843 387.697 199.172 386.685C199.843 384.658 200.945 382.832 202.233 381.177C203.528 379.524 205.052 378.052 206.76 376.826C210.148 374.366 214.464 372.999 218.674 373.55C220.752 373.831 222.814 374.431 224.633 375.491C226.468 376.516 228.059 377.939 229.356 379.565C230.652 381.198 231.662 383.033 232.44 384.945C233.218 386.858 233.792 388.855 234.074 390.893C233.234 386.886 231.586 382.994 228.961 379.888C227.661 378.336 226.094 377.004 224.316 376.065C222.553 375.092 220.575 374.57 218.584 374.347C214.584 373.912 210.526 375.187 207.299 377.575C204.076 379.946 201.439 383.255 200.106 386.998C199.792 387.931 199.573 388.907 199.602 389.847C199.624 390.78 199.952 391.676 200.701 392.054C201.054 392.257 201.533 392.336 201.951 392.343C202.356 392.332 202.716 392.171 203.005 391.872C203.589 391.263 203.839 390.267 203.928 389.311C204.085 387.357 203.681 385.336 202.982 383.469C202.274 381.597 201.222 379.851 199.862 378.39C198.505 376.931 196.795 375.793 194.903 375.174C193.014 374.545 190.943 374.493 188.975 374.91C185.038 375.747 181.39 378.209 179.217 381.703Z" fill="#263238"/>
<path d="M132.952 140.208C132.839 136.093 131.966 131.95 130.051 128.34C129.092 126.552 127.82 124.9 126.15 123.793C124.483 122.711 122.413 122.266 120.474 122.58C118.527 122.886 116.794 124.061 115.596 125.618C114.989 126.396 114.514 127.277 114.186 128.203C113.868 129.125 113.69 130.119 113.828 131.028C113.897 131.477 114.062 131.894 114.332 132.173C114.46 132.322 114.627 132.415 114.804 132.491C114.889 132.536 114.996 132.54 115.089 132.571C115.185 132.591 115.247 132.562 115.328 132.574C116.009 132.444 116.677 131.545 117.129 130.713C118.076 128.973 118.618 126.982 118.989 124.997C119.7 121.016 119.66 116.823 118.419 112.977C117.785 111.07 116.859 109.243 115.523 107.75C114.194 106.26 112.572 105.026 110.682 104.269C109.789 103.777 108.801 103.54 107.839 103.226C107.364 103.04 106.848 103.032 106.354 102.925C105.853 102.86 105.359 102.714 104.849 102.729C102.822 102.552 100.784 102.845 98.8048 103.326C94.8498 104.375 91.1938 106.493 88.0918 109.206C89.5518 107.741 91.2258 106.495 92.9958 105.415C94.7748 104.353 96.6628 103.436 98.6728 102.853C100.684 102.308 102.781 101.964 104.887 102.098C105.416 102.072 105.931 102.209 106.454 102.266C106.97 102.364 107.509 102.365 108.007 102.545C109.015 102.846 110.054 103.077 110.993 103.564C112.967 104.296 114.759 105.59 116.171 107.177C117.607 108.761 118.601 110.691 119.281 112.689C120.61 116.72 120.678 121.044 119.969 125.175C119.565 127.237 119.002 129.285 117.959 131.178C117.703 131.652 117.387 132.106 117.018 132.534C116.623 132.936 116.169 133.379 115.452 133.496C115.068 133.531 114.755 133.468 114.462 133.35C114.166 133.226 113.877 133.048 113.665 132.806C113.22 132.331 113.015 131.732 112.93 131.168C112.77 130.024 112.995 128.928 113.35 127.907C113.719 126.888 114.244 125.933 114.914 125.087C116.223 123.385 118.19 122.107 120.355 121.823C122.5 121.523 124.73 122.065 126.499 123.27C128.261 124.499 129.546 126.254 130.483 128.115C131.412 129.992 132.026 131.998 132.432 134.031C132.836 136.065 133.025 138.142 132.952 140.208Z" fill="#263238"/>
<path d="M353.769 192.371C349.741 191.521 345.508 191.403 341.551 192.423C339.589 192.939 337.686 193.79 336.219 195.155C334.778 196.523 333.862 198.433 333.715 200.392C333.558 202.356 334.296 204.316 335.531 205.844C336.145 206.616 336.892 207.283 337.715 207.818C338.537 208.342 339.463 208.748 340.379 208.826C340.832 208.863 341.276 208.8 341.61 208.603C341.784 208.514 341.914 208.373 342.029 208.219C342.093 208.147 342.122 208.044 342.174 207.961C342.216 207.873 342.202 207.805 342.233 207.73C342.266 207.037 341.547 206.178 340.844 205.545C339.373 204.219 337.563 203.227 335.72 202.403C332.015 200.783 327.928 199.843 323.898 200.152C321.896 200.324 319.903 200.798 318.139 201.748C316.38 202.692 314.802 203.982 313.625 205.643C312.938 206.397 312.477 207.302 311.948 208.164C311.656 208.583 311.528 209.082 311.309 209.538C311.128 210.01 310.871 210.456 310.768 210.955C310.123 212.885 309.932 214.935 309.938 216.971C310.035 221.061 311.242 225.111 313.156 228.761C312.072 227 311.251 225.081 310.614 223.108C309.997 221.13 309.545 219.08 309.448 216.989C309.388 214.906 309.542 212.787 310.164 210.77C310.262 210.25 310.515 209.78 310.693 209.285C310.909 208.806 311.036 208.282 311.327 207.84C311.855 206.93 312.322 205.974 313.015 205.174C314.188 203.425 315.864 201.985 317.736 200.982C319.612 199.955 321.72 199.439 323.822 199.244C328.052 198.893 332.273 199.835 336.124 201.488C338.035 202.362 339.895 203.387 341.492 204.844C341.893 205.203 342.261 205.616 342.591 206.076C342.89 206.553 343.214 207.098 343.161 207.823C343.106 208.204 342.971 208.495 342.788 208.752C342.599 209.011 342.357 209.25 342.073 209.4C341.508 209.722 340.877 209.781 340.308 209.732C339.158 209.62 338.145 209.146 337.235 208.563C336.331 207.966 335.524 207.233 334.857 206.384C333.507 204.714 332.724 202.503 332.952 200.332C333.161 198.177 334.209 196.134 335.792 194.695C337.398 193.268 339.404 192.429 341.433 191.952C343.475 191.487 345.569 191.357 347.641 191.437C349.714 191.517 351.777 191.818 353.769 192.371Z" fill="#263238"/>
<path d="M291.859 127.671C291.175 125.302 291.083 122.768 291.468 120.321C291.851 117.874 292.68 115.467 294.034 113.359C295.368 111.249 297.229 109.424 299.48 108.261C301.725 107.089 304.283 106.58 306.801 106.657C309.326 106.725 311.808 107.379 314.093 108.421C316.368 109.478 318.506 110.906 320.161 112.87C320.95 113.859 321.712 115.012 321.758 116.46C321.778 117.175 321.488 117.939 320.975 118.457C320.467 118.943 319.912 119.338 319.213 119.541C318.525 119.752 317.76 119.7 317.105 119.45C316.446 119.202 315.891 118.795 315.41 118.345C314.451 117.431 313.772 116.325 313.211 115.189C312.097 112.904 311.511 110.426 311.229 107.939C310.954 105.448 311.025 102.919 311.458 100.448C312.294 95.52 314.834 90.761 318.879 87.713C320.884 86.216 323.141 85.004 325.577 84.387C327.997 83.726 330.543 83.609 333.011 83.91C335.484 84.216 337.884 84.933 340.153 85.912C342.422 86.892 344.588 88.114 346.543 89.614C342.481 86.866 337.812 84.898 332.955 84.418C330.538 84.172 328.072 84.337 325.752 85.02C323.417 85.66 321.274 86.869 319.372 88.347C317.492 89.852 315.892 91.703 314.723 93.808C313.544 95.908 312.774 98.229 312.367 100.607C311.588 105.355 312.091 110.412 314.096 114.759C314.613 115.828 315.246 116.855 316.072 117.648C316.882 118.438 317.951 118.956 318.952 118.639C319.444 118.511 319.928 118.172 320.306 117.814C320.66 117.451 320.844 116.981 320.838 116.464C320.825 115.414 320.192 114.343 319.462 113.442C317.947 111.622 315.9 110.227 313.728 109.209C311.544 108.196 309.17 107.577 306.771 107.468C304.375 107.358 301.945 107.819 299.796 108.884C297.642 109.938 295.82 111.639 294.484 113.653C291.816 117.687 290.77 122.864 291.859 127.671Z" fill="#263238"/>
<path d="M175.874 381.922C173.633 381.216 171.246 382.46 170.54 384.699C169.833 386.942 171.078 389.327 173.319 390.034C175.558 390.74 177.943 389.497 178.649 387.256C179.355 385.017 178.113 382.627 175.874 381.922ZM178.156 387.099C177.536 389.068 175.44 390.16 173.474 389.54C171.507 388.92 170.415 386.825 171.036 384.856C171.656 382.889 173.751 381.797 175.72 382.418C177.684 383.037 178.776 385.132 178.156 387.099ZM175.874 381.922C173.633 381.216 171.246 382.46 170.54 384.699C169.833 386.942 171.078 389.327 173.319 390.034C175.558 390.74 177.943 389.497 178.649 387.256C179.355 385.017 178.113 382.627 175.874 381.922ZM178.156 387.099C177.536 389.068 175.44 390.16 173.474 389.54C171.507 388.92 170.415 386.825 171.036 384.856C171.656 382.889 173.751 381.797 175.72 382.418C177.684 383.037 178.776 385.132 178.156 387.099ZM175.874 381.922C173.633 381.216 171.246 382.46 170.54 384.699C169.833 386.942 171.078 389.327 173.319 390.034C175.558 390.74 177.943 389.497 178.649 387.256C179.355 385.017 178.113 382.627 175.874 381.922ZM178.156 387.099C177.536 389.068 175.44 390.16 173.474 389.54C171.507 388.92 170.415 386.825 171.036 384.856C171.656 382.889 173.751 381.797 175.72 382.418C177.684 383.037 178.776 385.132 178.156 387.099ZM177.291 377.429C172.566 375.941 167.535 378.566 166.047 383.284C164.56 388.004 167.18 393.039 171.902 394.526C176.62 396.012 181.655 393.391 183.142 388.67C184.631 383.953 182.01 378.915 177.291 377.429ZM179.281 387.453C178.466 390.039 175.703 391.479 173.12 390.665C170.537 389.851 169.096 387.087 169.911 384.502C170.726 381.917 173.491 380.479 176.074 381.293C178.655 382.106 180.095 384.87 179.281 387.453ZM178.649 387.255C179.355 385.016 178.113 382.627 175.874 381.921C173.633 381.215 171.246 382.459 170.54 384.698C169.833 386.941 171.078 389.326 173.319 390.033C175.558 390.739 177.943 389.496 178.649 387.255ZM178.156 387.099C177.536 389.068 175.44 390.16 173.474 389.54C171.507 388.92 170.415 386.825 171.036 384.856C171.656 382.889 173.751 381.797 175.72 382.418C177.684 383.037 178.776 385.132 178.156 387.099ZM175.874 381.922C173.633 381.216 171.246 382.46 170.54 384.699C169.833 386.942 171.078 389.327 173.319 390.034C175.558 390.74 177.943 389.497 178.649 387.256C179.355 385.017 178.113 382.627 175.874 381.922ZM178.156 387.099C177.536 389.068 175.44 390.16 173.474 389.54C171.507 388.92 170.415 386.825 171.036 384.856C171.656 382.889 173.751 381.797 175.72 382.418C177.684 383.037 178.776 385.132 178.156 387.099ZM175.874 381.922C173.633 381.216 171.246 382.46 170.54 384.699C169.833 386.942 171.078 389.327 173.319 390.034C175.558 390.74 177.943 389.497 178.649 387.256C179.355 385.017 178.113 382.627 175.874 381.922ZM178.156 387.099C177.536 389.068 175.44 390.16 173.474 389.54C171.507 388.92 170.415 386.825 171.036 384.856C171.656 382.889 173.751 381.797 175.72 382.418C177.684 383.037 178.776 385.132 178.156 387.099Z" fill="#455A64"/>
<path d="M173.656 394.688L170.369 393.653L169.818 396.037L172.741 396.958L173.656 394.688Z" fill="#455A64"/>
<path d="M167.749 391.61L166.157 388.553L164.082 389.849L165.497 392.568L167.749 391.61Z" fill="#455A64"/>
<path d="M165.749 385.256L166.785 381.969L164.401 381.418L163.48 384.341L165.749 385.256Z" fill="#455A64"/>
<path d="M168.829 379.349L171.885 377.757L170.589 375.681L167.871 377.097L168.829 379.349Z" fill="#455A64"/>
<path d="M175.182 377.349L178.469 378.384L179.021 376.001L176.097 375.08L175.182 377.349Z" fill="#455A64"/>
<path d="M181.088 380.427L182.68 383.484L184.756 382.188L183.34 379.47L181.088 380.427Z" fill="#455A64"/>
<path d="M183.089 386.781L182.053 390.068L184.437 390.62L185.358 387.696L183.089 386.781Z" fill="#455A64"/>
<path d="M180.01 392.688L176.953 394.28L178.249 396.356L180.968 394.94L180.01 392.688Z" fill="#455A64"/>
<path d="M341.672 353.349C346.18 347.275 344.91 338.694 338.836 334.187C332.76 329.678 324.179 330.948 319.672 337.021C315.163 343.097 316.433 351.678 322.509 356.187C328.582 360.695 337.163 359.426 341.672 353.349ZM335.809 348.998C333.702 351.837 329.697 352.43 326.86 350.325C324.021 348.218 323.428 344.213 325.535 341.373C327.64 338.536 331.646 337.943 334.485 340.05C337.321 342.156 337.914 346.161 335.809 348.998Z" fill="#263238"/>
<path d="M324.962 357.299L320.732 354.16L318.744 357.328L322.506 360.12L324.962 357.299Z" fill="#263238"/>
<path d="M317.969 349.899L317.197 344.688L313.551 345.522L314.237 350.157L317.969 349.899Z" fill="#263238"/>
<path d="M318.256 339.721L321.396 335.491L318.228 333.503L315.436 337.265L318.256 339.721Z" fill="#263238"/>
<path d="M325.656 332.728L330.867 331.956L330.033 328.31L325.398 328.996L325.656 332.728Z" fill="#263238"/>
<path d="M335.834 333.015L340.064 336.155L342.052 332.987L338.29 330.195L335.834 333.015Z" fill="#263238"/>
<path d="M342.828 340.416L343.599 345.627L347.245 344.793L346.559 340.158L342.828 340.416Z" fill="#263238"/>
<path d="M342.54 350.594L339.4 354.824L342.568 356.812L345.36 353.05L342.54 350.594Z" fill="#263238"/>
<path d="M335.141 357.587L329.93 358.358L330.764 362.004L335.399 361.319L335.141 357.587Z" fill="#263238"/>
<path d="M325.766 345.843L328.676 349.513L333.31 348.825L335.03 344.472L332.123 340.804L327.489 341.488L325.766 345.843ZM331.282 343.965C331.942 344.455 332.079 345.382 331.589 346.042C331.101 346.699 330.172 346.839 329.512 346.349C328.855 345.861 328.717 344.929 329.205 344.272C329.695 343.613 330.625 343.478 331.282 343.965Z" fill="#263238"/>
<path d="M351.941 86.601C349.98 85.983 347.891 87.072 347.273 89.031C346.655 90.994 347.744 93.081 349.705 93.699C351.664 94.317 353.751 93.229 354.369 91.268C354.987 89.309 353.9 87.218 351.941 86.601ZM353.938 91.131C353.395 92.854 351.562 93.809 349.84 93.267C348.119 92.725 347.164 90.891 347.706 89.168C348.248 87.447 350.082 86.492 351.805 87.034C353.525 87.576 354.481 89.41 353.938 91.131ZM351.941 86.601C349.98 85.983 347.891 87.072 347.273 89.031C346.655 90.994 347.744 93.081 349.705 93.699C351.664 94.317 353.751 93.229 354.369 91.268C354.987 89.309 353.9 87.218 351.941 86.601ZM353.938 91.131C353.395 92.854 351.562 93.809 349.84 93.267C348.119 92.725 347.164 90.891 347.706 89.168C348.248 87.447 350.082 86.492 351.805 87.034C353.525 87.576 354.481 89.41 353.938 91.131ZM351.941 86.601C349.98 85.983 347.891 87.072 347.273 89.031C346.655 90.994 347.744 93.081 349.705 93.699C351.664 94.317 353.751 93.229 354.369 91.268C354.987 89.309 353.9 87.218 351.941 86.601ZM353.938 91.131C353.395 92.854 351.562 93.809 349.84 93.267C348.119 92.725 347.164 90.891 347.706 89.168C348.248 87.447 350.082 86.492 351.805 87.034C353.525 87.576 354.481 89.41 353.938 91.131ZM353.182 82.67C349.048 81.368 344.645 83.665 343.343 87.793C342.042 91.923 344.334 96.329 348.467 97.63C352.596 98.931 357.001 96.637 358.302 92.506C359.604 88.378 357.31 83.97 353.182 82.67ZM354.923 91.441C354.21 93.703 351.792 94.964 349.531 94.251C347.27 93.538 346.01 91.12 346.723 88.858C347.436 86.596 349.856 85.337 352.116 86.05C354.375 86.762 355.635 89.18 354.923 91.441ZM354.37 91.268C354.988 89.309 353.901 87.218 351.942 86.601C349.981 85.983 347.892 87.072 347.274 89.031C346.656 90.994 347.745 93.081 349.706 93.699C351.665 94.316 353.752 93.229 354.37 91.268ZM353.938 91.131C353.395 92.854 351.562 93.809 349.84 93.267C348.119 92.725 347.164 90.891 347.706 89.168C348.248 87.447 350.082 86.492 351.805 87.034C353.525 87.576 354.481 89.41 353.938 91.131ZM351.941 86.601C349.98 85.983 347.891 87.072 347.273 89.031C346.655 90.994 347.744 93.081 349.705 93.699C351.664 94.317 353.751 93.229 354.369 91.268C354.987 89.309 353.9 87.218 351.941 86.601ZM353.938 91.131C353.395 92.854 351.562 93.809 349.84 93.267C348.119 92.725 347.164 90.891 347.706 89.168C348.248 87.447 350.082 86.492 351.805 87.034C353.525 87.576 354.481 89.41 353.938 91.131ZM351.941 86.601C349.98 85.983 347.891 87.072 347.273 89.031C346.655 90.994 347.744 93.081 349.705 93.699C351.664 94.317 353.751 93.229 354.369 91.268C354.987 89.309 353.9 87.218 351.941 86.601ZM353.938 91.131C353.395 92.854 351.562 93.809 349.84 93.267C348.119 92.725 347.164 90.891 347.706 89.168C348.248 87.447 350.082 86.492 351.805 87.034C353.525 87.576 354.481 89.41 353.938 91.131Z" fill="#263238"/>
<path d="M350.003 97.772L347.127 96.866L346.645 98.952L349.203 99.758L350.003 97.772Z" fill="#263238"/>
<path d="M344.832 95.078L343.439 92.404L341.623 93.537L342.862 95.916L344.832 95.078Z" fill="#263238"/>
<path d="M343.083 89.518L343.99 86.642L341.904 86.16L341.098 88.718L343.083 89.518Z" fill="#263238"/>
<path d="M345.777 84.349L348.452 82.956L347.318 81.14L344.939 82.379L345.777 84.349Z" fill="#263238"/>
<path d="M351.336 82.599L354.212 83.505L354.695 81.419L352.137 80.613L351.336 82.599Z" fill="#263238"/>
<path d="M356.506 85.293L357.899 87.968L359.715 86.834L358.476 84.455L356.506 85.293Z" fill="#263238"/>
<path d="M358.256 90.853L357.35 93.729L359.436 94.212L360.242 91.654L358.256 90.853Z" fill="#263238"/>
<path d="M355.561 96.022L352.887 97.415L354.02 99.231L356.399 97.992L355.561 96.022Z" fill="#263238"/>
<path d="M313.727 229.466C311.766 228.848 309.677 229.937 309.059 231.896C308.441 233.859 309.53 235.946 311.491 236.564C313.45 237.182 315.537 236.094 316.155 234.133C316.772 232.174 315.686 230.083 313.727 229.466ZM315.723 233.996C315.18 235.719 313.347 236.674 311.626 236.132C309.905 235.59 308.95 233.756 309.492 232.033C310.034 230.312 311.868 229.357 313.591 229.899C315.31 230.441 316.266 232.275 315.723 233.996ZM313.727 229.466C311.766 228.848 309.677 229.937 309.059 231.896C308.441 233.859 309.53 235.946 311.491 236.564C313.45 237.182 315.537 236.094 316.155 234.133C316.772 232.174 315.686 230.083 313.727 229.466ZM315.723 233.996C315.18 235.719 313.347 236.674 311.626 236.132C309.905 235.59 308.95 233.756 309.492 232.033C310.034 230.312 311.868 229.357 313.591 229.899C315.31 230.441 316.266 232.275 315.723 233.996ZM313.727 229.466C311.766 228.848 309.677 229.937 309.059 231.896C308.441 233.859 309.53 235.946 311.491 236.564C313.45 237.182 315.537 236.094 316.155 234.133C316.772 232.174 315.686 230.083 313.727 229.466ZM315.723 233.996C315.18 235.719 313.347 236.674 311.626 236.132C309.905 235.59 308.95 233.756 309.492 232.033C310.034 230.312 311.868 229.357 313.591 229.899C315.31 230.441 316.266 232.275 315.723 233.996ZM314.967 225.535C310.833 224.233 306.43 226.53 305.128 230.658C303.827 234.789 306.119 239.194 310.252 240.495C314.381 241.796 318.786 239.502 320.087 235.371C321.389 231.243 319.095 226.835 314.967 225.535ZM316.708 234.306C315.995 236.568 313.577 237.829 311.316 237.116C309.056 236.404 307.795 233.985 308.508 231.723C309.221 229.461 311.641 228.202 313.901 228.915C316.16 229.627 317.42 232.045 316.708 234.306ZM316.155 234.133C316.772 232.174 315.686 230.083 313.727 229.466C311.766 228.848 309.677 229.937 309.059 231.896C308.441 233.859 309.53 235.946 311.491 236.564C313.45 237.182 315.537 236.094 316.155 234.133ZM315.723 233.996C315.18 235.719 313.347 236.674 311.626 236.132C309.905 235.59 308.95 233.756 309.492 232.033C310.034 230.312 311.868 229.357 313.591 229.899C315.31 230.441 316.266 232.275 315.723 233.996ZM313.727 229.466C311.766 228.848 309.677 229.937 309.059 231.896C308.441 233.859 309.53 235.946 311.491 236.564C313.45 237.182 315.537 236.094 316.155 234.133C316.772 232.174 315.686 230.083 313.727 229.466ZM315.723 233.996C315.18 235.719 313.347 236.674 311.626 236.132C309.905 235.59 308.95 233.756 309.492 232.033C310.034 230.312 311.868 229.357 313.591 229.899C315.31 230.441 316.266 232.275 315.723 233.996ZM313.727 229.466C311.766 228.848 309.677 229.937 309.059 231.896C308.441 233.859 309.53 235.946 311.491 236.564C313.45 237.182 315.537 236.094 316.155 234.133C316.772 232.174 315.686 230.083 313.727 229.466ZM315.723 233.996C315.18 235.719 313.347 236.674 311.626 236.132C309.905 235.59 308.95 233.756 309.492 232.033C310.034 230.312 311.868 229.357 313.591 229.899C315.31 230.441 316.266 232.275 315.723 233.996Z" fill="#263238"/>
<path d="M311.788 240.637L308.912 239.731L308.43 241.817L310.988 242.623L311.788 240.637Z" fill="#263238"/>
<path d="M306.617 237.943L305.225 235.269L303.408 236.402L304.647 238.781L306.617 237.943Z" fill="#263238"/>
<path d="M304.868 232.383L305.775 229.507L303.689 229.025L302.883 231.583L304.868 232.383Z" fill="#263238"/>
<path d="M307.563 227.214L310.238 225.822L309.104 224.005L306.725 225.244L307.563 227.214Z" fill="#263238"/>
<path d="M313.121 225.464L315.997 226.371L316.48 224.285L313.922 223.479L313.121 225.464Z" fill="#263238"/>
<path d="M318.291 228.158L319.684 230.833L321.5 229.699L320.261 227.32L318.291 228.158Z" fill="#263238"/>
<path d="M320.041 233.718L319.135 236.594L321.221 237.077L322.027 234.519L320.041 233.718Z" fill="#263238"/>
<path d="M317.346 238.887L314.672 240.28L315.805 242.096L318.184 240.857L317.346 238.887Z" fill="#263238"/>
<path d="M95.0207 116.993C96.5627 110.665 92.6817 104.284 86.3537 102.742C80.0237 101.2 73.6417 105.081 72.0997 111.409C70.5577 117.739 74.4387 124.121 80.7687 125.663C87.0977 127.204 93.4787 123.323 95.0207 116.993ZM88.9127 115.505C88.1917 118.463 85.2137 120.275 82.2577 119.554C79.2997 118.833 77.4877 115.855 78.2087 112.897C78.9287 109.941 81.9077 108.13 84.8657 108.851C87.8207 109.571 89.6327 112.549 88.9127 115.505Z" fill="#263238"/>
<path d="M83.0871 125.723L78.6801 124.649L78.1641 127.828L82.0831 128.783L83.0871 125.723Z" fill="#263238"/>
<path d="M75.0618 122.195L72.7048 118.319L70.0918 120.202L72.1878 123.649L75.0618 122.195Z" fill="#263238"/>
<path d="M71.8803 114.024L72.9543 109.618L69.7753 109.101L68.8203 113.021L71.8803 114.024Z" fill="#263238"/>
<path d="M75.4091 105.998L79.2841 103.641L77.4021 101.028L73.9551 103.125L75.4091 105.998Z" fill="#263238"/>
<path d="M83.5801 102.818L87.9871 103.892L88.5041 100.713L84.5841 99.758L83.5801 102.818Z" fill="#263238"/>
<path d="M91.6055 106.346L93.9625 110.222L96.5755 108.339L94.4795 104.892L91.6055 106.346Z" fill="#263238"/>
<path d="M94.7869 114.517L93.7129 118.924L96.8919 119.44L97.8469 115.52L94.7869 114.517Z" fill="#263238"/>
<path d="M91.2578 122.543L87.3828 124.9L89.2658 127.513L92.7128 125.416L91.2578 122.543Z" fill="#263238"/>
<path d="M79.8879 116.366L83.4249 118.303L86.8699 116.205L86.7769 112.176L83.2419 110.24L79.7949 112.334L79.8879 116.366ZM83.6349 113.029C84.3229 113.196 84.7419 113.886 84.5739 114.574C84.4069 115.259 83.7169 115.681 83.0289 115.513C82.3439 115.346 81.9229 114.653 82.0899 113.968C82.2579 113.281 82.9499 112.862 83.6349 113.029Z" fill="#263238"/>
<path d="M361.589 238.938C358.899 234.842 357.387 230.235 357.387 225.365C357.387 208.169 376.27 194.227 399.549 194.227C422.828 194.227 441.694 208.17 441.694 225.365C441.694 242.56 422.828 256.503 399.549 256.503C388.261 256.503 378.028 253.233 370.468 247.888L355.945 251.581L361.589 238.938Z" fill="white"/>
<path d="M361.59 238.938C359.052 235.157 357.461 230.692 357.294 226.105C357.168 221.528 358.296 216.897 360.647 212.936C362.945 208.946 366.22 205.582 369.92 202.876C373.624 200.155 377.795 198.1 382.148 196.655C386.502 195.2 391.039 194.328 395.615 193.962C400.198 193.627 404.812 193.911 409.341 194.66C410.466 194.891 411.608 195.045 412.719 195.34L416.049 196.236L419.302 197.385C420.384 197.775 421.412 198.302 422.47 198.754C426.622 200.729 430.515 203.317 433.789 206.584C437.055 209.838 439.689 213.814 441.078 218.263C442.464 222.696 442.565 227.562 441.216 232.02C439.904 236.493 437.331 240.51 434.109 243.807C430.88 247.117 427.018 249.751 422.887 251.771C418.757 253.815 414.307 255.146 409.794 255.966C405.273 256.742 400.66 257.074 396.082 256.751C391.505 256.462 386.958 255.626 382.602 254.188C378.251 252.755 374.064 250.754 370.338 248.075L370.526 248.11L355.974 251.688L355.754 251.742L355.847 251.537L361.59 238.938ZM361.59 238.938L356.046 251.624L355.919 251.473L370.413 247.666L370.513 247.64L370.601 247.701C378.079 252.863 387.098 255.55 396.125 256.033C400.649 256.312 405.199 255.942 409.643 255.139C414.083 254.314 418.457 252.995 422.501 250.977C426.547 248.984 430.316 246.394 433.447 243.164C436.572 239.946 439.042 236.053 440.291 231.752C441.578 227.464 441.455 222.808 440.126 218.556C438.805 214.283 436.279 210.432 433.112 207.258C429.939 204.073 426.143 201.529 422.078 199.581C421.042 199.135 420.036 198.614 418.975 198.229L415.784 197.091L412.513 196.201C411.422 195.907 410.298 195.754 409.192 195.523C404.737 194.767 400.192 194.493 395.673 194.783C391.16 195.104 386.678 195.924 382.372 197.321C378.066 198.708 373.936 200.698 370.263 203.347C366.59 205.98 363.354 209.27 361.02 213.153C358.644 217.016 357.459 221.56 357.511 226.098C357.602 230.645 359.111 235.118 361.59 238.938Z" fill="#263238"/>
<path d="M377.861 230.463V232.778H368.426V219.19H377.689V221.506H371.068V224.778H376.79V226.922H371.068V230.462L377.861 230.463Z" fill="#263238"/>
<path d="M379.93 232.779V219.191H385.94C386.565 219.191 387.142 219.322 387.671 219.584C388.2 219.846 388.656 220.19 389.039 220.617C389.422 221.045 389.722 221.53 389.938 222.072C390.155 222.614 390.263 223.16 390.263 223.708C390.263 224.588 390.043 225.389 389.603 226.11C389.164 226.831 388.567 227.351 387.814 227.669L390.915 232.779H387.948L385.174 228.224H382.571V232.779H379.93ZM382.571 225.908H385.882C386.124 225.908 386.351 225.851 386.561 225.736C386.772 225.621 386.953 225.465 387.107 225.267C387.26 225.07 387.381 224.837 387.47 224.569C387.56 224.301 387.605 224.014 387.605 223.708C387.605 223.389 387.553 223.096 387.452 222.828C387.349 222.56 387.213 222.328 387.04 222.13C386.868 221.932 386.67 221.779 386.447 221.67C386.223 221.562 385.997 221.507 385.767 221.507H382.572V225.908H382.571Z" fill="#263238"/>
<path d="M392.654 232.779V219.191H398.664C399.289 219.191 399.866 219.322 400.395 219.584C400.924 219.846 401.38 220.19 401.763 220.617C402.146 221.045 402.446 221.53 402.662 222.072C402.879 222.614 402.987 223.16 402.987 223.708C402.987 224.588 402.767 225.389 402.327 226.11C401.888 226.831 401.291 227.351 400.538 227.669L403.638 232.779H400.671L397.896 228.224H395.294V232.779H392.654ZM395.296 225.908H398.606C398.848 225.908 399.075 225.851 399.285 225.736C399.496 225.621 399.677 225.465 399.831 225.267C399.984 225.07 400.105 224.837 400.194 224.569C400.284 224.301 400.329 224.014 400.329 223.708C400.329 223.389 400.277 223.096 400.176 222.828C400.073 222.56 399.937 222.328 399.764 222.13C399.592 221.932 399.394 221.779 399.171 221.67C398.947 221.562 398.721 221.507 398.491 221.507H395.296V225.908Z" fill="#263238"/>
<path d="M411.18 232.874C410.185 232.874 409.283 232.68 408.472 232.291C407.661 231.902 406.966 231.385 406.386 230.741C405.805 230.097 405.356 229.36 405.036 228.531C404.718 227.702 404.559 226.853 404.559 225.986C404.559 225.08 404.728 224.213 405.066 223.383C405.404 222.554 405.87 221.82 406.462 221.182C407.056 220.544 407.761 220.037 408.577 219.661C409.393 219.285 410.28 219.096 411.237 219.096C412.219 219.096 413.115 219.297 413.926 219.699C414.737 220.101 415.429 220.627 416.002 221.278C416.576 221.928 417.023 222.669 417.342 223.498C417.661 224.328 417.82 225.169 417.82 226.024C417.82 226.93 417.654 227.794 417.323 228.617C416.991 229.44 416.531 230.167 415.945 230.799C415.358 231.431 414.656 231.935 413.84 232.311C413.023 232.686 412.137 232.874 411.18 232.874ZM407.237 225.985C407.237 226.572 407.326 227.14 407.505 227.688C407.684 228.237 407.943 228.722 408.28 229.143C408.618 229.564 409.033 229.902 409.524 230.157C410.015 230.412 410.573 230.54 411.199 230.54C411.837 230.54 412.401 230.41 412.892 230.148C413.383 229.887 413.797 229.539 414.136 229.105C414.474 228.671 414.729 228.183 414.902 227.641C415.074 227.099 415.16 226.547 415.16 225.986C415.16 225.4 415.067 224.832 414.883 224.283C414.698 223.735 414.437 223.249 414.099 222.828C413.76 222.407 413.346 222.072 412.855 221.824C412.364 221.575 411.812 221.45 411.2 221.45C410.561 221.45 409.994 221.581 409.497 221.843C408.999 222.105 408.584 222.449 408.253 222.876C407.921 223.304 407.669 223.789 407.497 224.331C407.323 224.872 407.237 225.424 407.237 225.985Z" fill="#263238"/>
<path d="M419.85 232.779V219.191H425.86C426.485 219.191 427.062 219.322 427.591 219.584C428.12 219.846 428.576 220.19 428.959 220.617C429.342 221.045 429.642 221.53 429.858 222.072C430.075 222.614 430.183 223.16 430.183 223.708C430.183 224.588 429.963 225.389 429.523 226.11C429.084 226.831 428.487 227.351 427.734 227.669L430.835 232.779H427.868L425.094 228.224H422.491V232.779H419.85ZM422.491 225.908H425.802C426.044 225.908 426.271 225.851 426.481 225.736C426.692 225.621 426.874 225.465 427.027 225.267C427.18 225.07 427.301 224.837 427.39 224.569C427.48 224.301 427.525 224.014 427.525 223.708C427.525 223.389 427.473 223.096 427.372 222.828C427.269 222.56 427.133 222.328 426.96 222.13C426.788 221.932 426.59 221.779 426.367 221.67C426.143 221.562 425.917 221.507 425.687 221.507H422.492V225.908H422.491Z" fill="#263238"/>
</svg>
