<svg width="14" height="10" viewBox="0 0 14 10" fill="none" xmlns="http://www.w3.org/2000/svg">
<path fill-rule="evenodd" clip-rule="evenodd" d="M0.25005 5.00003C0.25005 4.80112 0.329068 4.61035 0.46972 4.4697C0.610372 4.32905 0.801137 4.25003 1.00005 4.25003L11.19 4.25003L8.47005 1.53003C8.33757 1.38785 8.26545 1.19981 8.26887 1.00551C8.2723 0.811206 8.35101 0.625821 8.48843 0.488408C8.62584 0.350995 8.81123 0.272283 9.00553 0.268855C9.19983 0.265426 9.38787 0.33755 9.53005 0.47003L13.53 4.47003C13.6705 4.61065 13.7494 4.80128 13.7494 5.00003C13.7494 5.19878 13.6705 5.3894 13.53 5.53003L9.53005 9.53003C9.38787 9.66251 9.19983 9.73463 9.00553 9.7312C8.81123 9.72778 8.62584 9.64906 8.48843 9.51165C8.35101 9.37424 8.2723 9.18885 8.26887 8.99455C8.26545 8.80025 8.33757 8.6122 8.47005 8.47003L11.19 5.75003L1.00005 5.75003C0.801137 5.75003 0.610372 5.67101 0.46972 5.53036C0.329068 5.38971 0.25005 5.19894 0.25005 5.00003Z" fill="white"/>
</svg>
