
<svg width="2673" height="7444" viewBox="0 0 2673 7444" fill="none" xmlns="http://www.w3.org/2000/svg">
<g clip-path="url(#clip0_1492_95)">
<rect width="2673" height="7444" fill="white"/>
<g filter="url(#filter0_f_1492_95)">
<rect x="309" y="2179" width="2054" height="913" fill="#7169E2" fill-opacity="0.2"/>
</g>
<g filter="url(#filter1_f_1492_95)">
<rect x="1239" y="-549" width="2054" height="913" fill="#7169E2" fill-opacity="0.2"/>
</g>
<g filter="url(#filter2_f_1492_95)">
<rect x="309" y="4070" width="2054" height="913" fill="#FDB714" fill-opacity="0.15"/>
</g>
<g filter="url(#filter3_f_1492_95)">
<rect x="2293" y="882" width="2054" height="913" fill="#FDB714" fill-opacity="0.15"/>
</g>
<g filter="url(#filter4_f_1492_95)">
<rect x="309" y="5962" width="2054" height="913" fill="#728237" fill-opacity="0.25"/>
</g>
<g filter="url(#filter5_f_1492_95)">
<rect x="-616" y="-92" width="1233" height="548" fill="#728237" fill-opacity="0.25"/>
</g>
<g filter="url(#filter6_f_1492_95)">
<path d="M1555.43 1052.45C1578.27 1071.24 1597.5 1093.2 1610.87 1118.56C1622.53 1140.69 1624 1165.37 1627.78 1189.71C1631.17 1211.6 1627.15 1233.45 1632.04 1255.11C1639.92 1290.02 1681.36 1323.71 1665.35 1356.19C1650.88 1385.55 1600.65 1377.86 1567.01 1387C1539.08 1394.6 1512.1 1402.75 1483.15 1405.74C1452.87 1408.87 1422.52 1411.46 1392.87 1404.99C1360.58 1397.95 1327.56 1387.97 1303.85 1366.62C1279.71 1344.88 1268.88 1314.08 1258.93 1284.4C1248.82 1254.23 1228.82 1219.46 1245.25 1191.74C1263.27 1161.34 1325.12 1172.84 1343.09 1142.42C1365.13 1105.12 1321.05 1050.84 1348.62 1016.79C1371.87 988.075 1423.46 989.304 1461.74 995.905C1498.92 1002.32 1527.23 1029.26 1555.43 1052.45Z" fill="#2C80FF" fill-opacity="0.25"/>
</g>
<g filter="url(#filter7_f_1492_95)">
<path d="M235.021 1677.73C320.662 1672.32 448.917 1712.09 486.918 1647.88C531.876 1571.92 395.374 1493.92 393.932 1409.23C393.045 1357.14 485.355 1324.77 480.531 1272.83C475.793 1221.81 400.52 1196.83 370.079 1152.38C336.332 1103.11 353.441 1021.71 291.917 997.45C228.293 972.365 160.806 1042 90.4252 1042.12C26.7362 1042.22 -31.5493 978.399 -90.7004 998.082C-149.844 1017.76 -157.801 1086.23 -185.641 1133.98C-207.622 1171.68 -202.966 1220.05 -237.764 1250.3C-310.415 1313.47 -459.584 1316.71 -491.631 1400.04C-516.941 1465.86 -426.801 1530.69 -362.281 1574.1C-301.641 1614.9 -217.625 1615.52 -143.11 1634.52C-82.4337 1650 -24.7802 1669.04 38.0843 1676.22C103.951 1683.74 168.729 1681.91 235.021 1677.73Z" fill="#FF4D9C" fill-opacity="0.15"/>
</g>
<g filter="url(#filter8_f_1492_95)">
<path d="M2743.02 3920.73C2828.66 3915.32 2956.92 3955.09 2994.92 3890.88C3039.88 3814.92 2903.37 3736.92 2901.93 3652.23C2901.04 3600.14 2993.35 3567.77 2988.53 3515.83C2983.79 3464.81 2908.52 3439.83 2878.08 3395.38C2844.33 3346.11 2861.44 3264.71 2799.92 3240.45C2736.29 3215.36 2668.81 3285 2598.43 3285.12C2534.74 3285.22 2476.45 3221.4 2417.3 3241.08C2358.16 3260.76 2350.2 3329.23 2322.36 3376.98C2300.38 3414.68 2305.03 3463.05 2270.24 3493.3C2197.59 3556.47 2048.42 3559.71 2016.37 3643.04C1991.06 3708.86 2081.2 3773.69 2145.72 3817.1C2206.36 3857.9 2290.38 3858.52 2364.89 3877.52C2425.57 3893 2483.22 3912.04 2546.08 3919.22C2611.95 3926.74 2676.73 3924.91 2743.02 3920.73Z" fill="#FF4D9C" fill-opacity="0.15"/>
</g>
<g filter="url(#filter9_f_1492_95)">
<path d="M2609.43 5324.45C2632.27 5343.24 2651.5 5365.2 2664.87 5390.56C2676.53 5412.69 2678 5437.37 2681.78 5461.71C2685.17 5483.6 2681.15 5505.45 2686.04 5527.11C2693.92 5562.02 2735.36 5595.71 2719.35 5628.19C2704.88 5657.55 2654.65 5649.86 2621.01 5659C2593.08 5666.6 2566.1 5674.75 2537.15 5677.74C2506.87 5680.87 2476.52 5683.46 2446.87 5676.99C2414.58 5669.95 2381.56 5659.97 2357.85 5638.62C2333.71 5616.88 2322.88 5586.08 2312.93 5556.4C2302.82 5526.23 2282.82 5491.46 2299.25 5463.74C2317.27 5433.34 2379.12 5444.84 2397.09 5414.42C2419.13 5377.12 2375.05 5322.84 2402.62 5288.79C2425.87 5260.08 2477.46 5261.3 2515.74 5267.9C2552.92 5274.32 2581.23 5301.26 2609.43 5324.45Z" fill="#2C80FF" fill-opacity="0.25"/>
</g>
<g filter="url(#filter10_f_1492_95)">
<path d="M195.426 3433.45C218.271 3452.24 237.502 3474.2 250.867 3499.56C262.529 3521.69 264.002 3546.37 267.776 3570.71C271.171 3592.6 267.153 3614.45 272.041 3636.11C279.921 3671.02 321.365 3704.71 305.355 3737.19C290.88 3766.55 240.646 3758.86 207.015 3768C179.079 3775.6 152.103 3783.75 123.152 3786.74C92.8657 3789.87 62.5236 3792.46 32.871 3785.99C0.576824 3778.95 -32.4404 3768.97 -56.1495 3747.62C-80.2895 3725.88 -91.124 3695.08 -101.07 3665.4C-111.177 3635.23 -131.176 3600.46 -114.746 3572.74C-96.7256 3542.34 -34.8831 3553.84 -16.9081 3523.42C5.12865 3486.12 -38.9524 3431.84 -11.3806 3397.79C11.8715 3369.08 63.4564 3370.3 101.735 3376.9C138.924 3383.32 167.231 3410.26 195.426 3433.45Z" fill="#2C80FF" fill-opacity="0.25"/>
</g>
<g filter="url(#filter11_f_1492_95)">
<rect width="2673" height="7444" fill="white" fill-opacity="0.2"/>
</g>
</g>
<defs>
<filter id="filter0_f_1492_95" x="16.41" y="1886.41" width="2639.18" height="1498.18" filterUnits="userSpaceOnUse" color-interpolation-filters="sRGB">
<feFlood flood-opacity="0" result="BackgroundImageFix"/>
<feBlend mode="normal" in="SourceGraphic" in2="BackgroundImageFix" result="shape"/>
<feGaussianBlur stdDeviation="146.295" result="effect1_foregroundBlur_1492_95"/>
</filter>
<filter id="filter1_f_1492_95" x="946.41" y="-841.59" width="2639.18" height="1498.18" filterUnits="userSpaceOnUse" color-interpolation-filters="sRGB">
<feFlood flood-opacity="0" result="BackgroundImageFix"/>
<feBlend mode="normal" in="SourceGraphic" in2="BackgroundImageFix" result="shape"/>
<feGaussianBlur stdDeviation="146.295" result="effect1_foregroundBlur_1492_95"/>
</filter>
<filter id="filter2_f_1492_95" x="16.41" y="3777.41" width="2639.18" height="1498.18" filterUnits="userSpaceOnUse" color-interpolation-filters="sRGB">
<feFlood flood-opacity="0" result="BackgroundImageFix"/>
<feBlend mode="normal" in="SourceGraphic" in2="BackgroundImageFix" result="shape"/>
<feGaussianBlur stdDeviation="146.295" result="effect1_foregroundBlur_1492_95"/>
</filter>
<filter id="filter3_f_1492_95" x="2000.41" y="589.41" width="2639.18" height="1498.18" filterUnits="userSpaceOnUse" color-interpolation-filters="sRGB">
<feFlood flood-opacity="0" result="BackgroundImageFix"/>
<feBlend mode="normal" in="SourceGraphic" in2="BackgroundImageFix" result="shape"/>
<feGaussianBlur stdDeviation="146.295" result="effect1_foregroundBlur_1492_95"/>
</filter>
<filter id="filter4_f_1492_95" x="16.41" y="5669.41" width="2639.18" height="1498.18" filterUnits="userSpaceOnUse" color-interpolation-filters="sRGB">
<feFlood flood-opacity="0" result="BackgroundImageFix"/>
<feBlend mode="normal" in="SourceGraphic" in2="BackgroundImageFix" result="shape"/>
<feGaussianBlur stdDeviation="146.295" result="effect1_foregroundBlur_1492_95"/>
</filter>
<filter id="filter5_f_1492_95" x="-908.59" y="-384.59" width="1818.18" height="1133.18" filterUnits="userSpaceOnUse" color-interpolation-filters="sRGB">
<feFlood flood-opacity="0" result="BackgroundImageFix"/>
<feBlend mode="normal" in="SourceGraphic" in2="BackgroundImageFix" result="shape"/>
<feGaussianBlur stdDeviation="146.295" result="effect1_foregroundBlur_1492_95"/>
</filter>
<filter id="filter6_f_1492_95" x="1020.41" y="773.412" width="867.176" height="854.176" filterUnits="userSpaceOnUse" color-interpolation-filters="sRGB">
<feFlood flood-opacity="0" result="BackgroundImageFix"/>
<feBlend mode="normal" in="SourceGraphic" in2="BackgroundImageFix" result="shape"/>
<feGaussianBlur stdDeviation="109.294" result="effect1_foregroundBlur_1492_95"/>
</filter>
<filter id="filter7_f_1492_95" x="-764.966" y="723.034" width="1529.93" height="1230.93" filterUnits="userSpaceOnUse" color-interpolation-filters="sRGB">
<feFlood flood-opacity="0" result="BackgroundImageFix"/>
<feBlend mode="normal" in="SourceGraphic" in2="BackgroundImageFix" result="shape"/>
<feGaussianBlur stdDeviation="134.483" result="effect1_foregroundBlur_1492_95"/>
</filter>
<filter id="filter8_f_1492_95" x="1743.03" y="2966.03" width="1529.93" height="1230.93" filterUnits="userSpaceOnUse" color-interpolation-filters="sRGB">
<feFlood flood-opacity="0" result="BackgroundImageFix"/>
<feBlend mode="normal" in="SourceGraphic" in2="BackgroundImageFix" result="shape"/>
<feGaussianBlur stdDeviation="134.483" result="effect1_foregroundBlur_1492_95"/>
</filter>
<filter id="filter9_f_1492_95" x="2074.41" y="5045.41" width="867.176" height="854.176" filterUnits="userSpaceOnUse" color-interpolation-filters="sRGB">
<feFlood flood-opacity="0" result="BackgroundImageFix"/>
<feBlend mode="normal" in="SourceGraphic" in2="BackgroundImageFix" result="shape"/>
<feGaussianBlur stdDeviation="109.294" result="effect1_foregroundBlur_1492_95"/>
</filter>
<filter id="filter10_f_1492_95" x="-339.588" y="3154.41" width="867.176" height="854.176" filterUnits="userSpaceOnUse" color-interpolation-filters="sRGB">
<feFlood flood-opacity="0" result="BackgroundImageFix"/>
<feBlend mode="normal" in="SourceGraphic" in2="BackgroundImageFix" result="shape"/>
<feGaussianBlur stdDeviation="109.294" result="effect1_foregroundBlur_1492_95"/>
</filter>
<filter id="filter11_f_1492_95" x="-98" y="-98" width="2869" height="7640" filterUnits="userSpaceOnUse" color-interpolation-filters="sRGB">
<feFlood flood-opacity="0" result="BackgroundImageFix"/>
<feBlend mode="normal" in="SourceGraphic" in2="BackgroundImageFix" result="shape"/>
<feGaussianBlur stdDeviation="49" result="effect1_foregroundBlur_1492_95"/>
</filter>
<clipPath id="clip0_1492_95">
<rect width="2673" height="7444" fill="white"/>
</clipPath>
</defs>
</svg>
